<?xml version="1.0" encoding="UTF-8" standalone="no" ?>
<!DOCTYPE svg PUBLIC "-//W3C//DTD SVG 1.1//EN" "http://www.w3.org/Graphics/SVG/1.1/DTD/svg11.dtd">
<svg xmlns="http://www.w3.org/2000/svg" xmlns:xlink="http://www.w3.org/1999/xlink" version="1.1" width="1000" height="1000" viewBox="0 0 1000 1000" xml:space="preserve">
<desc>Created with Fabric.js 4.6.0</desc>
<defs>
</defs>
<g transform="matrix(1 0 0 1 500 500)" id="bEpQOns9KzubC9C11F303"  >
<path style="stroke: rgb(0,0,0); stroke-width: 1; stroke-dasharray: none; stroke-linecap: butt; stroke-dashoffset: 0; stroke-linejoin: miter; stroke-miterlimit: 4; fill: rgb(255,255,255); fill-opacity: 0; fill-rule: nonzero; opacity: 1;" vector-effect="non-scaling-stroke"  transform=" translate(0, 0)" d="M -56.23296 -194.57391 C -56.23296 -194.57391 -27.0901 -217.43105000000003 -13.947249999999997 -221.43105000000003 C -0.8043899999999962 -225.43105000000003 29.481320000000004 -229.43105000000003 35.76704 -227.14534000000003 C 42.05275 -224.85963000000004 38.58133 -218.81376000000003 38.58133 -218.81376000000003 C 38.58133 -218.81376000000003 36.33694 -212.32997000000003 38.58133 -205.34743000000003 C 40.825720000000004 -198.36489000000003 40.75457 -190.13546000000002 35.76704 -189.38733000000002 C 30.779510000000002 -188.63920000000002 29.290570000000002 -187.64169 25.30054 -189.38733000000002 C 21.31052 -191.13297000000003 18.068620000000003 -194.32454 14.327970000000002 -194.57391 C 10.587320000000002 -194.82329000000001 15.396370000000003 -191.91696000000002 9.981810000000003 -188.36366 C 4.567260000000003 -184.81036 0.5063400000000033 -188.36366 0.5063400000000033 -188.36366 C 0.5063400000000033 -188.36366 -1.0164999999999966 -190.22491000000002 -1.5241199999999968 -191.91696000000002 C -2.031729999999997 -193.60901 -14.383679999999996 -186.3332 -16.414139999999996 -181.76468000000003 C -18.444599999999998 -177.19615000000002 3.890430000000002 -178.71899000000002 12.012260000000005 -179.39581000000004 C 20.134090000000004 -180.07263000000003 31.132400000000004 -187.34843000000004 32.31683 -190.22491000000005 C 33.50126 -193.10139000000004 38.069790000000005 -198.34674000000004 29.440350000000002 -204.26890000000006 C 20.81091 -210.19107000000005 8.289760000000001 -211.54470000000006 -3.0469599999999986 -206.29936000000006 C -14.383679999999998 -201.05401000000006 -24.19755 -189.38733000000008 -24.19755 -189.38733000000008 L -55.30512 -183.2875200000001 C -55.30512 -183.2875200000001 -62.580920000000006 -180.5802400000001 -64.27297 -175.3349000000001 C -65.96502 -170.0895500000001 -62.58092 -151.4770300000001 -66.13422 -148.09294000000008 C -69.68752 -144.7088500000001 -72.22559 -151.98465000000007 -72.22559 -151.98465000000007 C -72.22559 -151.98465000000007 -77.64014 -168.90512000000007 -87.79243 -174.48888000000008 C -97.94471 -180.0726400000001 -102.17483 -178.38059000000007 -102.17483 -178.38059000000007 C -102.17483 -178.38059000000007 -111.15047 -172.91910000000007 -104.50085 -153.22601000000006 C -97.85123 -133.53292000000005 -94.01492 -141.97281000000007 -89.41134 -132.76565000000005 C -84.80776 -123.55849000000005 -84.0405 -114.86284000000005 -78.15814 -113.83982000000005 C -72.27579 -112.81680000000004 -68.18372000000001 -114.35133000000005 -67.92796 -111.79378000000004 C -67.67220999999999 -109.23624000000004 -71.25277 -94.91398000000004 -62.045609999999996 -88.77588000000004 C -52.838449999999995 -82.63777000000005 -16.142879999999998 -62.41331000000004 -11.027789999999996 -59.08850000000004 C -5.912699999999996 -55.76369000000004 33.47195000000001 -33.330250000000035 35.767030000000005 -32.67451000000004 C 38.062110000000004 -32.01877000000004 50.52225000000001 -27.26467000000004 61.99766000000001 -28.08435000000004 C 73.47307 -28.90402000000004 93.47307 -29.88763000000004 102.81733000000001 -42.51058000000004 C 112.16159000000002 -55.133530000000036 127.23009000000002 -78.14723000000004 133.25748000000002 -109.65408000000005 C 139.28488000000002 -141.16093000000006 139.55885 -143.62668000000005 139.55885 -143.62668000000005 C 139.55885 -143.62668000000005 129.14789000000002 -64.99654000000005 129.69584 -61.16093000000005 C 130.24379 -57.32531000000005 168.59995 -30.20203000000005 168.59995 -30.20203000000005 C 168.59995 -30.20203000000005 184.00337000000002 43.252239999999944 188.96205 47.38446999999995 C 193.92073 51.51669999999995 228.63147 64.73983999999996 237.30916000000002 70.52496999999995 C 245.98685000000003 76.31008999999996 272.43313 145.12368999999995 284.82982000000004 155.86749999999995 C 297.22651 166.61129999999994 299.70585000000005 180.66088999999994 299.70585000000005 180.66088999999994 L 310.03643000000005 209.59299999999993 L 316.23478000000006 308.6936999999999 C 316.23478000000006 308.6936999999999 312.92899000000006 315.30526999999995 304.66453000000007 321.9168399999999 C 296.4000700000001 328.5284099999999 284.82982000000004 335.96642999999995 284.82982000000004 335.96642999999995 C 284.82982000000004 335.96642999999995 250.11908000000005 374.39617999999996 234.41660000000005 382.66063999999994 C 218.71412000000004 390.92509999999993 160.44966000000005 400.01600999999994 157.55710000000005 399.60278999999997 C 154.66454000000004 399.18956999999995 154.25131000000005 326.04907 154.25131000000005 326.04907 L 146.40007000000006 313.65238 C 146.40007000000006 313.65238 144.33395000000004 309.10693 146.40007000000006 306.62759 C 148.46619000000007 304.14825 159.62321000000006 301.25569 162.51577000000006 295.05734 C 165.40833000000006 288.85899 186.89594000000005 242.578 188.96205000000006 240.09866 C 191.02817000000007 237.61932 203.42486000000005 224.39618 203.83808000000005 217.37139 C 204.25130000000004 210.3466 198.05296000000004 106.37097999999999 198.05296000000004 106.37097999999999 C 198.05296000000004 106.37097999999999 162.10255000000004 82.40403999999998 162.51577000000003 79.51147999999999 C 162.92899000000003 76.61891999999999 164.16866000000005 58.739419999999996 162.51577000000003 53.36751999999999 C 160.86288000000002 47.99561999999999 144.33395000000004 4.193969999999993 146.40007000000003 -3.2440500000000085 C 148.46619000000004 -10.682070000000008 144.33395000000002 -42.097350000000006 126.56536000000003 -42.51057000000001 C 108.79676000000003 -42.92379000000001 100.53230000000002 19.069999999999993 105.49098000000002 37.66504 C 110.44966000000002 56.26008 100.11908000000003 57.086529999999996 100.11908000000003 57.086529999999996 C 100.11908000000003 57.086529999999996 50.119080000000025 64.52454999999999 45.57363000000002 66.59066 C 41.02818000000002 68.65678 25.73892000000002 67.00388 18.714130000000022 50.474959999999996 C 11.689340000000023 33.94602999999999 7.143880000000022 11.231249999999996 2.185200000000023 6.685789999999997 C -2.773479999999977 2.1403399999999975 -24.197539999999975 -23.905210000000004 -24.197539999999975 -23.905210000000004 C -24.197539999999975 -23.905210000000004 -31.332069999999973 -45.392810000000004 -36.70396999999998 -49.525040000000004 C -42.07586999999998 -53.657270000000004 -90.42297999999997 -89.19446 -97.86098999999999 -104.48372 C -105.29900999999998 -119.77298 -108.60478999999998 -82.58289 -92.90230999999999 -70.59942000000001 C -77.19982999999999 -58.61595000000001 -39.18329999999999 -43.32669000000001 -36.70395999999999 -37.12835000000001 C -34.22461999999999 -30.930000000000014 -33.811399999999985 -16.88042000000001 -33.811399999999985 -16.88042000000001 C -33.811399999999985 -16.88042000000001 -8.005609999999987 30.640239999999988 -3.046939999999985 53.36750999999998 C 1.911740000000015 76.09477999999999 14.327980000000014 73.61543999999998 14.327980000000014 73.61543999999998 C 14.327980000000014 73.61543999999998 21.560500000000015 81.29265999999998 21.560500000000015 89.55712999999997 C 21.560500000000015 97.82158999999997 14.327980000000014 103.19348999999997 14.327980000000014 103.19348999999997 C 14.327980000000014 103.19348999999997 -8.135219999999986 97.40836999999996 -11.027779999999986 110.63150999999996 C -13.920339999999985 123.85464999999996 -11.910579999999985 131.70588999999995 -7.778349999999985 132.94555999999997 C -3.6461199999999856 134.18522999999996 9.782520000000016 136.66456999999997 14.327980000000014 130.46621999999996 C 18.873430000000013 124.26786999999996 18.714130000000015 108.56538999999997 18.714130000000015 108.56538999999997 C 18.714130000000015 108.56538999999997 26.944950000000013 99.06125999999996 32.31685000000002 110.63150999999996 C 37.68875000000001 122.20175999999996 70.73405000000002 180.87943999999996 71.56050000000002 193.27613999999997 C 72.38695000000001 205.67282999999998 61.99767000000002 199.88770999999997 61.99767000000002 199.88770999999997 C 61.99767000000002 199.88770999999997 60.44966000000002 192.03646999999998 45.57363000000002 193.27613999999997 C 30.697600000000023 194.51580999999996 32.316850000000024 215.59018999999998 32.316850000000024 215.59018999999998 C 32.316850000000024 215.59018999999998 37.26298000000003 232.11911999999998 53.378680000000024 225.09431999999998 C 69.49438000000002 218.06953 65.36215000000003 209.593 65.36215000000003 209.593 C 65.36215000000003 209.593 74.86628000000003 205.46077 78.58529000000003 209.593 C 82.30430000000003 213.72522999999998 83.95719000000003 231.18825999999999 91.80843000000003 248.13040999999998 C 99.65967000000003 265.07256 109.99025000000003 306.62759 109.99025000000003 308.6937 C 109.99025000000003 310.75982 94.28777000000004 308.04776 89.74232000000003 301.43618999999995 C 85.19687000000003 294.82462 69.08116000000004 297.30395999999996 65.36215000000004 304.32874999999996 C 61.643140000000045 311.35353999999995 60.81670000000004 322.92378999999994 69.08116000000004 330.36180999999993 C 77.34562000000004 337.79982999999993 93.87455000000004 330.36180999999993 93.87455000000004 330.36180999999993 C 93.87455000000004 330.36180999999993 100.94554000000004 322.09734999999995 100.11909000000004 317.96511999999996 C 99.29264000000005 313.83288999999996 109.99025000000005 317.96511999999996 109.99025000000005 317.96511999999996 C 109.99025000000005 317.96511999999996 115.36215000000004 392.16477999999995 112.88281000000005 399.60278999999997 C 110.40347000000006 407.04080999999996 85.61008000000005 408.87420999999995 85.61008000000005 408.87420999999995 C 85.61008000000005 408.87420999999995 -38.90510999999995 409.70065999999997 -62.045599999999936 406.39486999999997 C -85.18609999999994 403.08907999999997 -103.64611999999994 395.65106999999995 -109.43123999999995 397.71718 C -115.21635999999995 399.7833 -117.28247999999995 382.66064 -117.28247999999995 382.66064 C -117.28247999999995 382.66064 -110.25768999999995 357.04081 -111.49735999999994 335.96643 C -112.73702999999995 314.89205 -120.58826999999994 293.17173 -117.28247999999995 279.94859 C -113.97668999999995 266.72545 -108.19156999999996 233.77201000000002 -113.56346999999995 215.59019 C -118.93536999999995 197.40837000000002 -131.33206999999996 193.27614 -131.33206999999996 193.27614 C -131.33206999999996 193.27614 -115.21636999999996 212.59322 -117.28247999999996 230.36181 C -119.34859999999996 248.13040999999998 -132.98495999999997 281.00775 -123.89404999999996 308.6937 C -114.80313999999997 336.37964999999997 -117.28247999999996 373.33702 -123.89404999999996 380.77504 C -130.50561999999996 388.21306 -149.92710999999997 380.77504 -149.92710999999997 380.77504 C -149.92710999999997 380.77504 -216.78140999999997 354.32876 -242.40123999999997 349.7833 C -268.02106999999995 345.23785 -296.94669 327.46925 -310.16983999999997 327.88247 C -323.39297999999997 328.29569000000004 -310.99629 204.84638 -310.16983999999997 199.88771000000003 C -309.34338999999994 194.92903000000004 -281.24422 101.41230000000003 -242.40123999999997 79.51147000000003 C -203.55825999999996 57.61064000000003 -208.10371999999998 34.64741000000003 -175.45908999999997 20.597820000000034 C -142.81445999999997 6.548230000000034 -163.56346999999997 -0.47655999999996723 -149.92709999999997 -10.393919999999966 C -136.29073999999997 -20.311279999999968 -134.13676999999996 -16.880429999999965 -134.13676999999996 -16.880429999999965 C -134.13676999999996 -16.880429999999965 -117.69568999999996 -77.05114999999996 -117.28246999999996 -86.96849999999996 C -116.86924999999997 -96.88585999999997 -116.45601999999997 -106.76151999999996 -111.49734999999995 -109.65407999999996 C -106.53866999999995 -112.54663999999997 -92.90230999999996 -115.06766999999996 -92.90230999999996 -118.37345999999997 C -92.90230999999996 -121.67924999999997 -96.53346999999995 -132.83626999999996 -100.25247999999996 -134.90238999999997 C -103.97148999999996 -136.96850999999998 -118.10891999999996 -133.63013999999995 -123.89404999999996 -148.09294999999997 C -129.67916999999997 -162.55575999999996 -127.47901999999996 -173.26879999999997 -127.06578999999996 -175.33490999999998 C -126.65256999999997 -177.40103 -137.39636999999996 -186.13185 -138.63603999999995 -191.91697 C -139.87570999999994 -197.70209 -146.90049999999997 -210.54286 -141.11537999999996 -217.15443 C -135.33025999999995 -223.766 -131.19801999999996 -226.24534 -129.13190999999995 -225.41888999999998 C -127.06578999999995 -224.59243999999998 -145.24760999999995 -238.03413999999998 -141.11537999999996 -254.56306999999998 C -136.98314999999997 -271.092 -129.13190999999995 -272.74489 -129.13190999999995 -272.74489 C -129.13190999999995 -272.74489 -133.67735999999994 -306.62919 -120.45421999999995 -321.092 C -107.23107999999995 -335.55481 -107.64429999999994 -333.07547 -107.64429999999994 -333.07547 C -107.64429999999994 -333.07547 -106.38744999999994 -359.10853 -87.79240999999995 -366.95977 C -69.19736999999995 -374.81101 -67.92794999999995 -372.33167 -67.92794999999995 -372.33167 C -67.92794999999995 -372.33167 -60.536859999999955 -392.43714 -46.90049999999995 -392.85037 C -33.264139999999955 -393.26359 -29.95834999999995 -390.37103 -29.95834999999995 -390.37103 C -29.95834999999995 -390.37103 -15.49553999999995 -408.96607 5.578840000000053 -397.39582 C 26.653220000000054 -385.82557 24.894920000000052 -382.93301 29.44037000000005 -382.93301 C 33.985820000000054 -382.93301 44.42181000000005 -381.28012 48.554050000000046 -392.85037 C 52.686280000000046 -404.42062 50.206940000000046 -408.96607 50.206940000000046 -408.96607 C 50.206940000000046 -408.96607 65.30346000000004 -396.15615 61.99767000000004 -382.93301 C 58.69188000000004 -369.70987 77.34562000000004 -397.80904000000004 93.87455000000004 -386.2388 C 110.40348000000004 -374.66855000000004 105.49099000000004 -366.95977000000005 105.49099000000004 -366.95977000000005 C 105.49099000000004 -366.95977000000005 130.97587000000004 -367.64376000000004 137.17422000000005 -347.80905000000007 C 143.37257000000005 -327.9743400000001 137.17422000000005 -323.0156600000001 137.17422000000005 -323.0156600000001 C 137.17422000000005 -323.0156600000001 151.77198000000004 -334.58591000000007 162.51578000000006 -308.13963000000007 C 173.25958000000006 -281.69335000000007 162.51578000000006 -266.40409000000005 162.51578000000006 -266.40409000000005 C 162.51578000000006 -266.40409000000005 175.60397000000006 -264.75120000000004 176.43042000000005 -251.94128000000006 C 177.25687000000005 -239.13136000000006 169.81885000000005 -220.04700000000005 164.86017000000007 -217.15444000000008 C 159.90149000000008 -214.26188000000008 181.80232000000007 -221.4310700000001 181.80232000000007 -221.4310700000001 C 181.80232000000007 -221.4310700000001 172.01991000000007 -207.8267800000001 162.51578000000006 -205.3474400000001 C 153.01165000000006 -202.86810000000008 172.73219000000006 -177.59267000000008 168.59996000000007 -167.2620900000001 C 164.46773000000007 -156.9315100000001 142.45143000000007 -153.6257300000001 139.55886000000007 -155.27862000000007 C 136.66630000000006 -156.9315100000001 140.85336000000007 -171.45141000000007 139.55886000000007 -175.33491000000006 C 138.26436000000007 -179.21841000000006 125.12376000000006 -186.00570000000008 118.36048000000007 -189.38734000000005 C 111.59719000000007 -192.76898000000006 105.49099000000007 -196.62863000000004 105.49099000000007 -196.62863000000004 C 105.49099000000007 -196.62863000000004 102.53455000000007 -198.56100000000004 100.11909000000007 -198.80254000000005 C 97.70363000000008 -199.04409000000004 97.29565000000007 -198.80254000000005 97.29565000000007 -198.80254000000005 C 97.29565000000007 -198.80254000000005 99.01649000000006 -195.59156000000004 97.96487000000006 -193.01030000000006 C 96.91324000000006 -190.42904000000007 92.03753000000006 -189.93812000000005 91.17711000000006 -190.22492000000005 C 90.31669000000005 -190.51173000000006 86.30139000000005 -192.24548000000004 86.01459000000006 -195.20915000000005 C 85.79793000000005 -197.44794000000005 80.41535000000006 -191.24031000000005 78.58530000000006 -188.36367000000004 C 78.43143000000006 -188.12180000000004 75.64506000000006 -200.93499000000003 80.49978000000006 -211.61917000000005 C 82.78058000000006 -216.63872000000006 92.10078000000006 -222.23792000000006 95.95722000000006 -225.41889000000006 C 98.19431000000006 -227.26414000000005 107.73204000000007 -226.96813000000006 114.36489000000006 -223.58009000000007 C 119.38688000000006 -221.01487000000006 130.54930000000007 -207.29580000000007 131.13899000000006 -204.26891000000006 C 132.12437000000006 -199.21094000000005 120.92706000000007 -193.03228000000007 120.92078000000006 -193.01029000000005 C 120.90560000000006 -192.95716000000004 115.08926000000007 -203.44690000000006 104.51546000000006 -206.29936000000006 C 102.11682000000006 -206.94644000000005 89.77119000000006 -207.08610000000007 84.25917000000007 -202.35177000000007 C 78.32466000000007 -197.25456000000008 79.30034000000006 -187.22514000000007 79.56751000000007 -187.08294000000006 C 83.48227000000007 -184.99938000000006 94.90817000000007 -180.64031000000006 102.81734000000007 -182.20722000000006 C 112.95118000000008 -184.21487000000008 113.73924000000008 -188.03896000000006 115.84249000000007 -187.08294000000006 C 117.94574000000007 -186.12692000000007 122.34345000000008 -184.40608000000006 122.72586000000007 -182.20722000000006 C 123.10827000000006 -180.00837000000007 115.65129000000007 -172.07338000000007 107.81190000000007 -170.73494000000005 C 99.97251000000007 -169.39651000000006 95.95722000000006 -169.97012000000007 95.95722000000006 -169.97012000000007 C 95.95722000000006 -169.97012000000007 83.14651000000006 -180.58197000000007 81.52127000000006 -177.90511000000006 C 79.89603000000005 -175.22825000000006 91.80843000000006 -140.41366000000005 91.80843000000006 -140.41366000000005 C 91.80843000000006 -140.41366000000005 107.15973000000005 -129.97888000000006 107.81190000000007 -123.67453000000005 C 108.46407000000006 -117.37018000000005 109.97999000000007 -111.50062000000005 106.50173000000007 -102.80496000000005 C 103.02347000000006 -94.10931000000005 100.11908000000007 -91.71800000000005 100.11908000000007 -91.71800000000005 L 100.11908000000007 -102.80496000000005 C 100.11908000000007 -102.80496000000005 98.98737000000007 -104.67167000000005 97.29564000000006 -104.48370000000006 C 95.60391000000006 -104.29573000000005 94.93649000000006 -101.79483000000006 91.17709000000006 -101.41889000000006 C 87.41769000000006 -101.04295000000006 42.905780000000064 -99.91513000000006 40.650140000000064 -99.91513000000006 C 38.394500000000065 -99.91513000000006 53.620060000000066 -107.24596000000007 56.439610000000066 -107.24596000000007 C 59.259160000000065 -107.24596000000007 65.13378000000006 -105.04761000000006 69.08115000000006 -104.48370000000007 C 73.02852000000007 -103.91979000000006 79.64156000000007 -108.37377000000006 81.52126000000007 -108.37377000000006 C 83.40096000000007 -108.37377000000006 87.48511000000006 -104.85964000000007 91.80842000000007 -104.48370000000007 C 96.13173000000008 -104.10776000000007 95.95721000000007 -102.80496000000007 95.95721000000007 -102.80496000000007 C 95.95721000000007 -102.80496000000007 83.50728000000008 -92.28191000000007 73.73285000000007 -91.71800000000006 C 63.95841000000007 -91.15409000000005 56.78588000000007 -90.32866000000006 50.20693000000007 -93.71212000000006 C 43.62798000000007 -97.09558000000006 39.52644000000007 -100.47904000000005 35.76704000000007 -101.41889000000006 C 32.00764000000007 -102.35874000000007 20.34939000000007 -106.18842000000006 16.40202000000007 -102.80496000000007 C 12.454650000000072 -99.42150000000007 7.191490000000071 -93.71212000000007 7.191490000000071 -93.71212000000007 L 12.830590000000072 -113.83979000000006 C 12.830590000000072 -113.83979000000006 17.71781000000007 -124.72716000000007 20.34939000000007 -127.35873000000007 C 22.98097000000007 -129.99031000000008 40.63508000000007 -145.21587000000005 43.830570000000066 -146.53166000000007 C 47.026060000000065 -147.84745000000007 46.47721000000006 -148.09290000000007 46.47721000000006 -148.09290000000007 C 46.47721000000006 -148.09290000000007 38.770440000000065 -138.59268000000006 40.650140000000064 -132.76561000000007 C 42.529840000000064 -126.93854000000006 50.206930000000064 -127.35872000000006 50.206930000000064 -127.35872000000006 C 50.206930000000064 -127.35872000000006 52.626790000000064 -127.73466000000006 53.378670000000064 -129.99030000000008 C 54.13055000000006 -132.24594000000008 56.439610000000066 -134.52640000000008 58.695250000000065 -134.90234000000007 C 60.950890000000065 -135.27828000000008 65.36214000000007 -134.90234000000007 65.36214000000007 -134.90234000000007 C 65.36214000000007 -134.90234000000007 63.582470000000065 -130.55421000000007 64.33435000000007 -127.35873000000007 C 65.08623000000007 -124.16324000000006 65.83811000000007 -122.84745000000007 67.52984000000008 -122.65948000000006 C 69.22157000000009 -122.47151000000005 74.10879000000008 -123.03542000000006 75.42458000000008 -124.72715000000007 C 76.74037000000008 -126.41888000000007 80.01751000000007 -132.57765000000006 81.52127000000007 -132.76562000000007 C 83.02503000000007 -132.95359000000008 83.69526000000008 -133.70547000000008 84.25917000000007 -132.76562000000007 C 84.82308000000008 -131.82577000000006 80.49977000000007 -125.29106000000007 80.49977000000007 -124.72715000000007 C 80.49977000000007 -124.16324000000006 82.56744000000008 -122.35873000000007 84.25917000000007 -123.67452000000007 C 85.95090000000008 -124.99031000000008 91.62046000000007 -125.47903000000007 91.80843000000007 -129.99031000000008 C 91.99640000000008 -134.50159000000008 91.05810000000007 -140.1406900000001 89.74231000000007 -141.6444500000001 C 88.42652000000007 -143.1482100000001 76.17646000000008 -180.9224800000001 75.42458000000008 -185.0578200000001 C 74.67270000000008 -189.19316000000012 70.72533000000007 -197.6899400000001 70.72533000000007 -204.2688900000001 C 70.72533000000007 -210.8478400000001 76.55240000000008 -225.8473000000001 84.25916000000007 -229.0427900000001 C 91.96593000000007 -232.23828000000012 111.78152000000006 -232.6142200000001 118.36047000000006 -229.0427900000001 C 124.93942000000007 -225.47136000000012 133.25748000000007 -207.23828000000012 133.25748000000007 -207.23828000000012 L 131.13897000000009 -239.59164000000013 C 131.13897000000009 -239.59164000000013 106.1127600000001 -235.63561000000013 100.11907000000008 -254.56306000000012 C 94.12538000000008 -273.4905000000001 91.80841000000008 -272.74488000000014 91.80841000000008 -272.74488000000014 L 82.87398000000007 -251.94126000000014 C 82.87398000000007 -251.94126000000014 84.92090000000007 -276.81562000000014 70.72531000000008 -287.85663000000017 C 56.52973000000008 -298.89764000000014 45.57361000000007 -299.52855000000017 45.57361000000007 -299.52855000000017 C 45.57361000000007 -299.52855000000017 22.820540000000072 -274.92287000000016 -3.0469599999999275 -276.50016000000016 C -28.914469999999927 -278.07745000000017 -22.488789999999927 -300.79038000000014 -22.488789999999927 -300.79038000000014 L -41.10077999999993 -280.6011100000001 C -41.10077999999993 -280.6011100000001 -42.99351999999993 -277.1310800000001 -41.10077999999993 -274.92288000000013 C -39.208039999999926 -272.71468000000016 -24.19754999999993 -260.41184000000015 -24.19754999999993 -260.41184000000015 C -24.19754999999993 -260.41184000000015 -25.92498999999993 -255.04906000000017 -33.81141999999993 -257.88818000000015 C -41.69785999999993 -260.7273000000001 -52.781459999999925 -274.92288000000013 -55.30511999999993 -274.92288000000013 C -57.82877999999993 -274.92288000000013 -59.08184999999993 -262.93550000000016 -52.14177999999993 -257.88818000000015 C -45.20171999999993 -252.84086000000013 -28.06561999999993 -249.68629000000016 -29.95835999999993 -247.79354000000015 C -31.85109999999993 -245.90080000000015 -44.87649999999993 -243.69259000000014 -56.232959999999935 -247.79354000000015 C -67.58942999999994 -251.89449000000016 -70.43829999999994 -254.56306000000015 -70.43829999999994 -254.56306000000015 C -70.43829999999994 -254.56306000000015 -72.79030999999995 -237.87560000000013 -64.27295999999994 -229.04280000000014 C -55.75560999999994 -220.20999000000015 -52.14176999999994 -225.12291000000013 -52.14176999999994 -218.81376000000014 C -52.14176999999994 -212.50461000000016 -56.232959999999935 -194.57391000000015 -56.232959999999935 -194.57391000000015 z" stroke-linecap="round" />
</g>
</svg>