<?xml version="1.0" encoding="UTF-8" standalone="no" ?>
<!DOCTYPE svg PUBLIC "-//W3C//DTD SVG 1.1//EN" "http://www.w3.org/Graphics/SVG/1.1/DTD/svg11.dtd">
<svg xmlns="http://www.w3.org/2000/svg" xmlns:xlink="http://www.w3.org/1999/xlink" version="1.1" width="1000" height="1000" viewBox="0 0 1000 1000" xml:space="preserve">
<desc>Created with Fabric.js 4.6.0</desc>
<defs>
</defs>
<g transform="matrix(1 0 0 1 500 526.52)" id="SE27QyiK0fxis8fMA7c3O"  >
<path style="stroke: rgb(0,0,0); stroke-width: 1; stroke-dasharray: none; stroke-linecap: butt; stroke-dashoffset: 0; stroke-linejoin: miter; stroke-miterlimit: 4; fill: rgb(255,255,255); fill-opacity: 0; fill-rule: nonzero; opacity: 1;" vector-effect="non-scaling-stroke"  transform=" translate(0, 0)" d="M 203.42623 -238.71497 L 198.58142 -300.8338 L 84.09734 -300.8338 L -30.5094 -300.8338 L -135.00378 -300.8338 L -238.44947000000002 -300.8338 L -238.44947000000002 -282.05207 L -172.4898 -200.16681 L -115.25184 -129.10908 L -60.31628 -60.90964000000001 L -6.389829999999996 6.037049999999994 L -57.0032 66.56026 L -117.36057 138.73529000000002 L -192.11368 228.12468 L -238.44947 283.53278 L -238.44947 300.83382 L -155.20861 300.45029 L -66.47233 300.04144 L 5.436260000000004 299.71012 L 122.27736 299.17178 L 212.15191 298.75769 C 212.15191 298.75769 218.72629999999998 242.70233000000002 219.07233 239.93416000000002 C 219.41835 237.16599000000002 228.41488999999999 183.18676000000002 228.41488999999999 183.18676000000002 L 238.44949 130.59160000000003 L 224.26264 126.78537000000003 C 224.26264 126.78537000000003 208.34535 195.98952000000003 166.82285000000002 213.63658000000004 C 125.30036000000001 231.28364000000005 86.54603000000002 230.59160000000003 86.54603000000002 230.59160000000003 L 20.05241000000001 230.59160000000003 L -50.73410999999999 230.59160000000003 L -148.3739 230.59160000000003 L -81.49945 149.71274000000003 L -23.658849999999994 79.75954000000003 L 29.523720000000004 15.439830000000029 L 64.5446 -26.914899999999975 L -14.441189999999992 -125.26417999999997 L -77.61947999999998 -203.93072999999998 L -127.69902999999998 -266.28736 L 54.68310000000001 -268.70950999999997 C 54.68310000000001 -268.70950999999997 101.05005000000001 -269.74756999999994 129.76977 -256.9448 C 158.48949 -244.14202999999998 166.79399 -231.68527999999998 171.29226 -226.14894999999999 C 175.79053 -220.61262 177.17461 -218.88251 185.13309 -198.46729 C 193.09157000000002 -178.05207 194.82167 -153.83060999999998 194.82167 -153.83060999999998 L 210.04658 -153.83060999999998 z" stroke-linecap="round" />
</g>
</svg>