<?xml version="1.0" encoding="UTF-8" standalone="no" ?>
<!DOCTYPE svg PUBLIC "-//W3C//DTD SVG 1.1//EN" "http://www.w3.org/Graphics/SVG/1.1/DTD/svg11.dtd">
<svg xmlns="http://www.w3.org/2000/svg" xmlns:xlink="http://www.w3.org/1999/xlink" version="1.1" width="1000" height="1000" viewBox="0 0 1000 1000" xml:space="preserve">
<desc>Created with Fabric.js 4.6.0</desc>
<defs>
</defs>
<g transform="matrix(1 0 0 1 510.47 386.18)" id="Ajx7kgVhZJIa2lli5pWIQ"  >
<path style="stroke: rgb(255,0,0); stroke-width: 1; stroke-dasharray: none; stroke-linecap: butt; stroke-dashoffset: 0; stroke-linejoin: miter; stroke-miterlimit: 4; fill: rgb(255,255,255); fill-opacity: 0; fill-rule: nonzero; opacity: 1;" vector-effect="non-scaling-stroke"  transform=" translate(0, 0)" d="M -10.8263 -283.12575 C -10.8263 -283.12575 -106.47987 -286.38208 -148.44415 -218.52492999999998 C -190.40844 -150.66778999999997 -177.01558 -93.52492999999998 -177.01558 -93.52492999999998 C -177.01558 -93.52492999999998 -174.54988 -51.22360999999999 -171.90087 -41.95207999999998 C -169.25186 -32.68055999999998 -171.90087 -22.74677999999998 -171.90087 -22.74677999999998 C -171.90087 -22.74677999999998 -165.00044 -34.00505999999998 -148.44415 -38.64081999999998 C -131.88786000000002 -43.276579999999974 -79.18564 -43.276579999999974 -62.62934000000001 -38.64081999999998 C -46.07305000000001 -34.00505999999998 -45.73087000000001 -25.79250999999998 -45.73087000000001 -25.79250999999998 C -45.73087000000001 -25.79250999999998 -18.65663000000001 -28.41259999999998 -8.176280000000013 -25.79250999999998 C 2.304069999999987 -23.172419999999978 -1.6260600000000123 -38.89530999999998 8.417609999999986 -41.95207999999998 C 18.461279999999988 -45.00884999999998 47.71891999999998 -50.24665999999998 61.69271999999998 -49.80997999999998 C 75.66651999999998 -49.37329999999998 111.91105999999998 -42.82307999999998 118.46127999999999 -32.779409999999984 C 125.01149999999998 -22.735739999999986 158.18365999999997 -46.316529999999986 158.18365999999997 -46.316529999999986 L 158.18365999999997 -41.95207999999999 L 123.24915999999997 -14.438799999999986 C 123.24915999999997 -14.438799999999986 124.57481999999997 19.622340000000015 118.46127999999997 25.299190000000017 C 112.34773999999997 30.976050000000015 105.78190999999997 47.13325000000002 80.45439999999996 48.44329000000002 C 55.12688999999996 49.75333000000002 46.39325999999996 48.44329000000002 46.39325999999996 48.44329000000002 C 46.39325999999996 48.44329000000002 28.963709999999963 42.32033000000002 21.409749999999963 35.126080000000016 C 13.855789999999963 27.931840000000015 -0.1729800000000381 -0.8451399999999865 -0.1729800000000381 -0.8451399999999865 L -4.489530000000038 -17.751609999999985 C -4.489530000000038 -17.751609999999985 -42.493460000000034 -18.830749999999984 -45.73087000000004 -17.751609999999985 C -48.968280000000036 -16.672469999999986 -46.59314000000004 3.4714100000000165 -55.22624000000004 18.939040000000013 C -63.85933000000004 34.40667000000001 -84.36293000000003 53.11170000000001 -95.15430000000003 53.47141000000001 C -105.94567000000004 53.83112000000001 -143.23907000000003 54.19083000000001 -152.23188000000005 45.91745000000002 C -161.22469000000004 37.64407000000001 -166.98008000000004 25.299180000000018 -166.98008000000004 25.299180000000018 C -166.98008000000004 25.299180000000018 -171.90086000000005 -3.7228399999999837 -171.90086000000005 -8.75880999999998 C -171.90086000000005 -13.794779999999978 -183.16713000000004 -11.27679999999998 -183.16713000000004 -11.27679999999998 L -183.16713000000004 -17.75161999999998 L -173.45490000000004 -32.77941999999998 C -173.45490000000004 -32.77941999999998 -185.32540000000003 -31.44658999999998 -190.36137000000002 -38.64082999999998 C -195.39734 -45.83506999999998 -200.79302 -38.64082999999998 -200.79302 -38.64082999999998 C -200.79302 -38.64082999999998 -199.35417 -1.9665199999999814 -193.23906000000002 9.903990000000022 C -187.12395000000004 21.77449000000002 -191.08079000000004 31.486720000000023 -190.36136000000002 36.88241000000002 C -189.64194 42.27809000000002 -185.32539000000003 53.06946000000002 -183.16712 55.947160000000025 C -181.00885000000002 58.82486000000002 -176.29614 67.09824000000003 -177.01557000000003 73.21335000000002 C -177.73499000000004 79.32846000000002 -172.73547000000002 98.75292000000002 -164.10238000000004 100.91119000000002 C -163.70358000000004 101.01089000000002 -161.88542000000004 94.50412000000001 -162.05697000000004 85.87238000000002 C -162.24428000000003 76.44766000000001 -164.43006000000003 64.83431000000002 -164.10238000000004 65.12309000000002 C -163.71043000000003 65.46851000000002 -162.42149000000003 75.16506000000001 -162.05697000000004 84.56668000000002 C -161.71879000000004 93.28878000000002 -162.30012000000005 101.75704000000002 -162.05697000000004 102.26942000000003 C -158.63758000000004 109.47486000000002 -158.32373000000004 126.98008000000003 -156.90814000000003 132.92557000000002 C -155.10958000000002 140.47953 -143.87341000000004 170.37404000000004 -135.58073000000002 185.00819 C -127.28805000000001 199.64234000000002 -117.04414000000001 212.32526000000001 -117.04414000000001 212.32526000000001 L -111.67829000000002 220.61794 C -111.67829000000002 220.61794 -108.32503000000001 250.98263 -95.15430000000002 259.76312 C -81.98357000000001 268.54361 -29.44128000000002 288.54361 -0.17299000000002707 283.17775 C 29.095299999999973 277.8119 59.253679999999974 271.77253 61.69270999999997 265.43107 C 64.13172999999998 259.08961 90.30187999999997 224.15335999999996 91.27748999999997 208.54360999999997 C 92.25309999999998 192.93384999999998 94.40657999999998 151.95206999999996 86.60169999999997 142.19597 C 78.79681999999997 132.43986999999998 42.21145999999997 102.68376999999998 24.650479999999966 104.63498999999999 C 13.380329999999967 105.88722999999999 -7.705650000000034 113.06830999999998 -17.113070000000036 114.59411999999999 C -20.631660000000036 115.16480999999999 -17.861280000000036 140.8363 -19.162560000000035 153.30736 C -19.294240000000034 154.56936 12.813949999999966 157.69628999999998 36.89255999999997 155.41472 C 42.95704999999997 154.84008 38.41996999999997 165.70371999999998 29.496479999999966 170.48302999999999 C 20.917529999999964 175.07781 6.514319999999966 173.58346999999998 6.508169999999968 173.65000999999998 C 6.483129999999968 173.92114999999998 22.76882999999997 175.92457 29.496479999999966 171.71013 C 35.000109999999964 168.26246 44.23382999999997 161.46111 39.907009999999964 156.71874 C 38.38149999999997 155.04672 29.179349999999964 156.56527 27.274259999999963 156.71874 C 3.5127899999999634 158.63289 -20.75073000000004 155.4912 -20.75668000000004 155.41472 C -20.82555000000004 154.52910999999997 -21.81838000000004 103.94679 -20.75668000000004 102.94852999999999 C -19.44040000000004 101.7109 -13.088930000000039 100.31224999999999 -10.826300000000039 98.85885999999999 C -7.665900000000039 96.82879999999999 -1.5418300000000382 90.45373 2.211449999999962 89.67719 C 16.357789999999962 86.75036 11.248299999999961 94.77955999999999 15.627859999999963 93.68467 C 20.00741999999996 92.58977999999999 29.496469999999963 88.21021999999999 29.496469999999963 82.3708 C 29.496469999999963 76.53138 31.263739999999963 63.392700000000005 21.40972999999996 59.01314000000001 C 11.55571999999996 54.63358000000001 2.2114399999999605 45.91745000000001 2.2114399999999605 45.91745000000001 C 2.2114399999999605 45.91745000000001 -5.3828000000000396 -4.5715999999999894 -5.7477600000000395 -12.235829999999993 C -5.9767400000000395 -17.044369999999994 -2.9306700000000396 -17.18752999999999 6.50815999999996 -18.230329999999995 C 12.11369999999996 -18.849629999999994 21.66402999999996 -20.792699999999996 29.49646999999996 -21.464049999999993 C 34.689689999999956 -21.909179999999992 41.453969999999956 -22.542129999999993 46.39322999999996 -22.746789999999994 C 47.84720999999996 -22.807029999999994 42.91530999999996 -16.666569999999993 46.39322999999996 -14.438799999999993 C 50.25904999999996 -11.962569999999992 68.13626999999997 -14.671279999999994 69.72520999999996 -16.058639999999993 C 71.82591999999997 -17.89285999999999 71.97293999999997 -22.151819999999994 70.69664999999996 -22.746779999999994 C 66.94193999999996 -24.497089999999993 45.886189999999964 -22.753499999999995 46.39322999999996 -22.746779999999994 C 49.98426999999996 -22.699159999999996 59.94737999999996 -23.482919999999993 66.86889999999997 -23.498639999999995 C 70.85206999999997 -23.507689999999993 74.72476999999996 -22.746779999999994 75.23636999999997 -22.746779999999994 C 78.83996999999997 -22.746779999999994 92.95408999999997 -8.758799999999994 92.95408999999997 -8.758799999999994 C 92.95408999999997 -8.758799999999994 80.64177999999997 -16.959539999999993 75.23636999999997 -16.058639999999993 C 72.70764999999997 -15.637189999999993 63.42752999999996 -12.797099999999993 54.06084999999997 -12.235819999999993 C 43.405269999999966 -11.597309999999993 30.310749999999967 -18.665269999999992 27.274249999999967 -19.783979999999993 C 25.130639999999968 -20.573729999999994 11.354349999999966 -18.329219999999992 -4.489550000000033 -17.751599999999993 C -18.372250000000033 -17.245479999999993 -33.73141000000003 -18.457949999999993 -45.73089000000003 -18.230319999999992 C -56.488200000000035 -18.02624999999999 -62.629360000000034 -14.438789999999992 -62.629360000000034 -14.438789999999992 C -62.629360000000034 -14.438789999999992 -82.74053000000004 -6.388539999999992 -90.72586000000004 -5.457549999999992 C -101.12440000000004 -4.245209999999992 -111.18095000000004 -6.856819999999992 -115.00729000000004 -7.355899999999992 C -121.77200000000003 -8.238249999999992 -132.36023000000003 -2.944139999999992 -132.36023000000003 -2.944139999999992 C -132.36023000000003 -2.944139999999992 -131.26609000000002 -9.34633999999999 -123.03079000000002 -12.875759999999993 C -119.11401000000002 -14.554379999999993 -113.39992000000002 -16.315579999999994 -105.95618000000002 -17.751609999999992 C -104.57703000000002 -18.017669999999992 -94.21928000000001 -19.26280999999999 -90.72586000000001 -19.70884999999999 C -90.44260000000001 -19.74501999999999 -97.77556000000001 -19.19320999999999 -103.63813000000002 -18.23032999999999 C -108.14359000000002 -17.490339999999993 -111.47509000000002 -16.33782999999999 -111.67830000000002 -16.058649999999993 C -112.75700000000002 -14.576619999999993 -110.80107000000002 -9.813379999999993 -107.04763000000003 -8.758809999999993 C -105.18393000000003 -8.235179999999993 -100.95259000000003 -6.944649999999993 -96.62848000000002 -7.355919999999993 C -92.01858000000003 -7.794369999999994 -87.30323000000003 -9.992139999999992 -85.23881000000003 -11.276799999999993 C -82.91409000000003 -12.723429999999993 -82.96222000000003 -16.59134999999999 -82.36023000000003 -17.751619999999992 C -81.31870000000004 -19.75906999999999 -90.40350000000004 -19.741389999999992 -89.71708000000002 -19.783999999999992 C -85.93242000000002 -20.018889999999992 -82.54330000000003 -20.02913999999999 -80.30140000000003 -19.70886999999999 C -75.54468000000003 -19.02933999999999 -69.23543000000004 -16.10072999999999 -62.62935000000003 -16.05865999999999 C -54.93909000000003 -16.00968999999999 -47.15478000000003 -18.748249999999988 -45.73088000000003 -16.05865999999999 C -43.083820000000024 -11.058659999999989 -47.06610000000003 35.29113000000001 -52.06610000000003 42.64407000000001 C -57.06610000000003 49.99701000000002 -67.94845000000002 60.29113000000001 -68.53669000000002 62.93819000000001 C -69.12493000000002 65.58525000000002 -71.77198000000003 69.70290000000001 -71.47787000000002 76.17348000000001 C -71.18375000000002 82.64407000000001 -69.41905000000003 87.32424000000002 -66.47787000000002 89.67718 C -65.94195000000002 90.10592000000001 -64.27051000000003 92.24753000000001 -62.629350000000024 91.79066 C -60.87139000000003 91.30128 -61.108630000000026 88.41319 -58.73274000000002 87.28020000000001 C -56.677660000000024 86.3002 -52.07146000000002 86.99910000000001 -49.72900000000002 87.28020000000001 C -43.43279000000002 88.03576000000001 -36.851080000000024 94.32968000000001 -36.18375000000002 94.99701 C -34.713160000000016 96.4676 -29.72096000000002 103.15175 -22.95625000000002 102.2694 C -20.02735000000002 101.88737 -23.030420000000017 106.67965000000001 -23.791760000000018 109.32093 C -24.32822000000002 111.18205 -22.778370000000017 155.01047 -23.791760000000018 155.4147 C -23.895690000000016 155.45615 -41.97913000000002 155.39829 -56.859980000000014 156.71872000000002 C -61.061630000000015 157.09155 -75.01300000000002 157.53658000000001 -77.56209000000001 164.52016000000003 C -79.96533000000001 171.10416000000004 -50.27044000000001 179.52040000000002 -44.27650000000001 177.44782000000004 C -27.230440000000012 171.55366000000004 4.88651999999999 173.88313000000002 4.858509999999988 173.64999000000003 C 4.840989999999988 173.50411000000003 -28.096250000000012 169.69407000000004 -44.27650000000001 175.12356000000003 C -49.976900000000015 177.03640000000001 -79.49597000000001 167.70361000000003 -77.56209000000001 162.44451000000004 C -75.32728000000002 156.36704000000003 -62.64890000000001 155.70326000000003 -58.73273000000001 155.41469000000004 C -44.86494000000001 154.39282000000003 -26.06378000000001 154.39347000000004 -26.179350000000014 153.30733000000004 C -27.523020000000013 140.67913000000004 -25.455890000000014 114.69745000000003 -26.179350000000014 114.59409000000004 C -30.297000000000015 114.00585000000004 -64.71316000000002 103.84351000000004 -82.36022000000001 112.66704000000004 C -100.00728000000001 121.49057000000005 -113.83081000000001 135.31410000000005 -115.00728000000001 149.13763000000006 C -116.18375 162.96116000000006 -107.04762000000001 178.80836000000005 -107.04762000000001 178.80836000000005 C -107.04762000000001 178.80836000000005 -111.67829 196.26763000000005 -111.67829 206.79394000000005 C -111.67829 212.62973000000005 -114.36516 237.76586000000006 -98.94433000000001 255.52973000000006 C -86.54982000000001 269.8074700000001 -57.82728000000001 277.67964000000006 -41.72314000000001 279.39950000000005 C -29.504900000000006 280.70436000000007 -23.341580000000008 283.72226000000006 -10.465800000000009 283.17772 C 14.743709999999993 282.11156 52.867079999999994 274.72118 61.69271 265.43104 C 75.02604 251.39595 81.80381 231.83485 91.27749 214.99275 C 100.75117 198.15064 109.6489 192.95855 109.6489 192.95855 C 109.6489 192.95855 131.75416 165.94101 137.3682 155.41469 C 142.98224 144.88837 144.38574 132.92554 144.38574 132.92554 L 152.24196 96.64563000000001 L 156.91869 46.92092000000001 L 154.2103 3.6740600000000114 C 154.2103 3.6740600000000114 157.39985 23.78633000000001 156.91869 44.24994000000001 C 156.35929 68.04125 152.17876 92.70172000000001 153.19956 92.94313000000001 C 156.13172 93.63657 160.48952 93.72349000000001 163.68398 89.67717 C 168.94714 83.01050000000001 173.50853999999998 70.38621 172.80678999999998 65.12306000000001 C 172.10503999999997 59.85990000000001 180.87696999999997 49.42620000000001 179.47346 45.91743000000001 C 178.06994999999998 42.40866000000001 188.59626999999998 36.00025000000001 188.94714 30.38622000000001 C 189.29801999999998 24.77218000000001 190.35065 9.903970000000008 190.35065 9.903970000000008 L 199.12258 -14.438819999999993 C 199.12258 -14.438819999999993 205.43837 -61.810979999999994 193.50854 -62.16185999999999 C 181.57872 -62.51273999999999 160.87696 -38.640849999999986 160.87696 -38.640849999999986 L 160.87696 -49.80999999999999 C 160.87696 -49.80999999999999 166.84187 -77.30371999999998 163.68398 -115.54933999999999 C 160.52608999999998 -153.79494999999997 154.2103 -173.79494999999997 154.2103 -173.79494999999997 C 154.2103 -173.79494999999997 146.14756 -194.35000999999997 131.31587 -214.71419999999998 C 127.29839999999999 -220.23026 113.04932 -239.36031999999997 91.27749 -253.56763999999998 C 68.70702 -268.29611 38.63173 -278.02263999999997 36.89257 -278.42717999999996 C -0.9149299999999982 -287.22132 -10.82629 -283.12577 -10.82629 -283.12577" stroke-linecap="round" />
</g>
</svg>