<?xml version="1.0" encoding="UTF-8" standalone="no" ?>
<!DOCTYPE svg PUBLIC "-//W3C//DTD SVG 1.1//EN" "http://www.w3.org/Graphics/SVG/1.1/DTD/svg11.dtd">
<svg xmlns="http://www.w3.org/2000/svg" xmlns:xlink="http://www.w3.org/1999/xlink" version="1.1" width="1000" height="1000" viewBox="0 0 1000 1000" xml:space="preserve">
<desc>Created with Fabric.js 4.6.0</desc>
<defs>
</defs>
<g transform="matrix(2.1 0 0 2.1 500 500)" id="lRWunngfFGd27OmQz_7Pi"  >
<path style="stroke: rgb(0,0,0); stroke-width: 1; stroke-dasharray: none; stroke-linecap: butt; stroke-dashoffset: 0; stroke-linejoin: miter; stroke-miterlimit: 4; fill: rgb(255,255,255); fill-opacity: 0; fill-rule: nonzero; opacity: 1;" vector-effect="non-scaling-stroke"  transform=" translate(0, 0)" d="M 140.0716 -147.96177 L 17.983789999999985 -147.96177 L -78.76969000000001 -147.96177 C -78.76969000000001 -147.96177 -107.10302000000001 -148.51733000000002 -119.88080000000001 -130.18399 C -132.65858 -111.85065999999999 -151.54747 -69.07288 -151.54747 -69.07288 C -151.54747 -69.07288 -124.88080000000001 -97.96177 -113.21414000000001 -100.73955 C -101.54747000000002 -103.51732999999999 -65.92345000000002 -103.16959 -65.92345000000002 -103.16959 C -65.92345000000002 -103.16959 -77.27716000000001 34.205749999999995 -78.76970000000001 42.04157000000001 C -80.26224000000002 49.877390000000005 -90.40246000000002 66.99342000000001 -106.82037000000001 80.42626000000001 C -123.23828 93.85910000000001 -126.22336000000001 121.47104000000002 -126.22336000000001 121.47104000000002 C -126.22336000000001 121.47104000000002 -127.71590000000002 140.12776000000002 -116.89500000000001 144.60537000000002 C -106.07410000000002 149.08298000000002 -96.74575000000002 149.08298000000002 -90.77560000000001 144.60537000000002 C -84.80545000000001 140.12776000000002 -82.41176000000002 140.78075 -70.47146000000001 124.73597000000002 C -58.53116000000001 108.69119000000002 -50.10396000000001 63.262080000000026 -48.61142000000001 58.78447000000003 C -47.11888000000001 54.30686000000003 -32.99869000000001 -102.01040999999998 -30.21232000000001 -101.54601999999997 C -27.425940000000008 -101.08161999999997 36.04590999999999 -100.73954999999997 36.04590999999999 -100.73954999999997 C 36.04590999999999 -100.73954999999997 31.28400999999999 -72.70581999999996 31.28400999999999 -66.99153999999996 C 31.28400999999999 -61.27724999999996 21.02396999999999 38.06930000000004 26.103339999999992 70.76771000000005 C 31.182709999999993 103.46612000000005 36.262069999999994 116.48200000000006 43.881119999999996 124.73596000000005 C 51.50017 132.98993000000004 61.023979999999995 143.14866000000006 77.84937 143.14866000000006 C 94.67477 143.14866000000006 106.10333999999999 139.02168000000006 116.89698999999999 127.91056000000006 C 127.69063999999999 116.79945000000006 142.29381999999998 96.16453000000006 147.37318 82.51373000000007 C 152.45255 68.86294000000007 153.40492999999998 48.862940000000066 147.37318 48.228020000000065 C 141.34143 47.593100000000064 138.45252 56.16453000000006 138.45252 56.16453000000006 C 138.45252 56.16453000000006 124.51603 91.08516000000006 111.50016 94.89469000000005 C 98.48428999999999 98.70421000000006 95.30967999999999 98.06929000000005 92.13507999999999 97.11691000000005 C 88.96047999999999 96.16453000000004 69.91286 95.52961000000005 64.83348999999998 64.73596000000005 C 59.754119999999986 33.94231000000005 63.246189999999984 -76.35198999999996 64.83348999999998 -85.24087999999996 C 66.42078999999998 -94.12976999999997 69.91285999999998 -100.27617999999995 71.81761999999998 -101.54601999999997 C 73.72237999999997 -102.81585999999997 136.38685999999996 -101.54601999999997 136.38685999999996 -101.54601999999997 C 136.38685999999996 -101.54601999999997 139.85629999999995 -101.58323999999998 139.22137999999995 -105.07530999999997 C 138.58645999999996 -108.56736999999997 140.07159999999996 -147.96177999999998 140.07159999999996 -147.96177999999998 z" stroke-linecap="round" />
</g>
</svg>