<?xml version="1.0" encoding="UTF-8" standalone="no" ?>
<!DOCTYPE svg PUBLIC "-//W3C//DTD SVG 1.1//EN" "http://www.w3.org/Graphics/SVG/1.1/DTD/svg11.dtd">
<svg xmlns="http://www.w3.org/2000/svg" xmlns:xlink="http://www.w3.org/1999/xlink" version="1.1" width="1000" height="1000" viewBox="0 0 1000 1000" xml:space="preserve">
<desc>Created with Fabric.js 4.6.0</desc>
<defs>
</defs>
<g transform="matrix(1 0 0 1 496.81 511.38)" id="6WpsJqKdJ1tdc6zSKCh32"  >
<path style="stroke: rgb(0,0,0); stroke-width: 1; stroke-dasharray: none; stroke-linecap: butt; stroke-dashoffset: 0; stroke-linejoin: miter; stroke-miterlimit: 4; fill: rgb(255,255,255); fill-opacity: 0; fill-rule: nonzero; opacity: 1;" vector-effect="non-scaling-stroke"  transform=" translate(0, 0)" d="M 8.77993 162.65095 C 8.77993 162.65095 -29.633200000000002 134.88076999999998 -24.92732 100.46901 C -20.22144 66.05725 -4.044970000000003 54.586659999999995 5.366799999999998 48.11607 C 14.778559999999997 41.64548 35.29859 39.88078 35.29859 39.88078 C 35.29859 39.88078 51.18094 40.46902 59.122119999999995 43.70431 C 67.0633 46.9396 103.53388 65.76313 105.00447 110.76312999999999 C 106.47506 155.76313 81.47506 181.05725 81.47506 181.05725 C 81.47506 181.05725 75.3627 186.93329 66.0873 192.50016000000002 C 65.82339 192.65855000000002 35.298590000000004 39.880780000000016 35.298590000000004 39.880780000000016 L 26.570980000000006 41.06395000000001 L 18.903540000000007 42.287300000000016 L 48.09109000000001 198.60527000000002 L 66.08731 192.50016000000002 C 66.08731 192.50016000000002 48.00638000000001 198.92703000000003 46.89479 199.29415000000003 C 42.54811 200.72971000000004 31.13259 204.28828000000004 23.82843 204.62283000000002 C -14.700979999999998 206.38754000000003 -28.230819999999998 199.31554000000003 -32.9367 197.55084000000002 C -37.64258 195.78613 -98.7277 177.38985000000002 -109.2319 114.36464000000002 C -119.7361 51.33943000000002 -97.88736 14.364640000000023 -97.88736 14.364640000000023 C -97.88736 14.364640000000023 -66.37475 -31.20381999999998 -48.7277 -44.22902999999998 C -31.08064 -57.25423999999998 21.44037 -109.77524999999999 21.44037 -109.77524999999999 C 21.44037 -109.77524999999999 92.02861 -186.02396 83.62523999999999 -280.56176999999997 C 75.22188 -375.09959 51.272299999999994 -409.99735 44.96977999999999 -413.77886 C 38.66725999999999 -417.56037000000003 27.322719999999993 -419.24104 14.297509999999992 -407.47634 C 1.2722999999999924 -395.71163 -10.072240000000008 -380.16542 -19.31594000000001 -357.05617 C -28.55964000000001 -333.94693 -33.35687000000001 -299.28699 -32.936710000000005 -274.07691 C -32.516540000000006 -248.86683 -27.299140000000005 -205.58952 -27.299140000000005 -205.58952 L -21.416790000000006 -168.61473 L -20.380500000000005 -161.47187 L 14.297489999999996 -199.5284 L 26.570959999999996 -214.47379 C 26.570959999999996 -214.47379 56.38616 -254.52648 60.30637 -278.12069 C 61.921820000000004 -287.84348 63.300670000000004 -302.61005 62.83982 -312.29511 C 62.556940000000004 -318.24017000000003 61.02389 -338.8371 51.802820000000004 -342.16513000000003 C 46.3318 -344.13971000000004 39.37482 -344.62865000000005 33.12334 -342.16513000000003 C 29.57332 -340.76618 14.620559999999998 -330.32038000000006 5.3667799999999986 -311.08348 C 0.521939999999999 -301.01196 -10.457870000000002 -268.97966 -12.28105 -241.44227 C -14.529810000000001 -207.47673 -7.3956100000000005 -177.20801 -7.3956100000000005 -177.20801 C -7.3956100000000005 -177.20801 -14.72958 -208.24664 -12.28105 -242.97672 C -10.426580000000001 -269.28059 0.79115 -300.51442 5.3667799999999986 -310.07919 C 14.769929999999999 -329.7353 29.450249999999997 -340.84296 33.12334 -342.16512 C 40.27628 -344.73989 48.75421 -343.61613 51.80282 -342.16512 C 59.86884 -338.32603 60.643969999999996 -322.71771 62.839819999999996 -314.05875000000003 L 62.839819999999996 -314.05875000000003 L 62.96612 -312.50377000000003 L 62.96612 -312.50377000000003 C 64.98804 -287.61048000000005 58.5843 -262.76003000000003 44.78353 -241.94410000000005 L 26.57096 -214.47377000000006 L 14.29749 -199.52838000000006 L -19.31596 -161.47185000000005 C -19.31596 -161.47185000000005 -73.93781 -103.63920000000005 -83.60167 -93.13500000000005 C -93.26554 -82.63080000000005 -118.47561999999999 -48.17702000000005 -118.47561999999999 -48.17702000000005 C -118.47561999999999 -48.17702000000005 -145.78654 -1.9585300000000458 -146.20671 29.974239999999945 C -146.62688 61.90700999999994 -140.32435999999998 162.08945999999995 -71.83695999999999 200.32474999999997 C -9.699699999999993 235.01487999999998 41.46076000000001 220.53752999999998 50.413730000000015 217.55462999999997 C 51.32868000000001 217.24978999999996 69.96788000000001 212.44964 69.96788000000001 212.44964 C 69.96788000000001 212.44964 51.64985000000001 216.68329999999997 51.80282000000001 217.55462999999997 C 53.57366000000001 227.64117 64.9882 292.44095999999996 66.08728 305.62998 C 67.28131 319.95833999999996 72.35594 351.68886 56.83355000000001 371.98737 C 41.31116000000001 392.28588 19.82469000000001 398.55453 8.779910000000008 398.25603 C -2.2648699999999913 397.95752 -17.464649999999992 396.16648000000004 -24.927339999999994 389.30081 C -32.390029999999996 382.43514 -32.936719999999994 377.95753 -32.936719999999994 377.95753 C -32.936719999999994 377.95753 15.126250000000006 365.12171 3.1859500000000054 320.34559 C -8.754349999999995 275.56947 -61.3754 297.06201 -61.3754 297.06201 C -61.3754 297.06201 -80.31808 305.71873 -83.60166 338.85305 C -86.88524 371.98738 -68.53958 386.61424 -68.53958 386.61424 C -68.53958 386.61424 -38.38426 418.85305 8.779920000000004 416.46499 C 55.944100000000006 414.07693 69.96789000000001 389.30081 69.96789000000001 389.30081 C 69.96789000000001 389.30081 85.95106000000001 370.19414 86.84658000000002 341.23892 C 87.74210000000002 312.2837 76.10031000000002 242.73146000000003 76.10031000000002 242.73146000000003 L 69.96789000000003 212.44965000000002 C 69.96789000000003 212.44965000000002 145.43670000000003 180.61971000000003 146.21491000000003 104.74423000000002 C 146.99312000000003 28.868740000000017 102.24604000000002 4.696150000000017 102.24604000000002 4.696150000000017 C 102.24604000000002 4.696150000000017 60.26914000000002 -20.066689999999983 24.471470000000025 -11.506379999999982 C 23.915500000000026 -11.373429999999983 7.600470000000026 -94.64447999999997 7.054640000000024 -94.50740999999998 C 6.548280000000024 -94.38024999999998 24.969130000000025 -11.636929999999978 24.471470000000025 -11.506379999999979 C 20.649080000000026 -10.50368999999998 12.715640000000025 -8.320589999999978 9.396160000000025 -7.158009999999979 C 8.481140000000025 -6.837539999999978 -5.224409999999976 -82.05819999999997 -6.102049999999975 -81.72900999999997 C -6.769609999999975 -81.47861999999998 9.426040000000025 -7.4126999999999725 8.779920000000025 -7.158009999999976 C -13.656469999999974 1.6860100000000244 -24.927329999999976 14.364670000000025 -24.927329999999976 14.364670000000025 C -24.927329999999976 14.364670000000025 -48.72671999999997 36.99187000000002 -53.39597999999998 66.95296000000002 C -58.06523999999998 96.91405000000002 -50.67223999999998 114.03467000000002 -44.44655999999998 124.54051000000001 C -38.22087999999998 135.04635000000002 -6.0956999999999795 161.64752000000001 0.18614000000002306 165.55245000000002 C 6.467970000000023 169.45737000000003 5.366800000000023 168.94804000000002 5.366800000000023 168.94804000000002 z" stroke-linecap="round" />
</g>
</svg>