<?xml version="1.0" encoding="UTF-8" standalone="no" ?>
<!DOCTYPE svg PUBLIC "-//W3C//DTD SVG 1.1//EN" "http://www.w3.org/Graphics/SVG/1.1/DTD/svg11.dtd">
<svg xmlns="http://www.w3.org/2000/svg" xmlns:xlink="http://www.w3.org/1999/xlink" version="1.1" width="1000" height="1000" viewBox="0 0 1000 1000" xml:space="preserve">
<desc>Created with Fabric.js 4.6.0</desc>
<defs>
</defs>
<g transform="matrix(1 0 0 1 487.83 503.74)" id="ZwFW2fksah6MMgslw9W0C"  >
<path style="stroke: rgb(0,0,0); stroke-width: 1; stroke-dasharray: none; stroke-linecap: butt; stroke-dashoffset: 0; stroke-linejoin: miter; stroke-miterlimit: 4; fill: rgb(255,255,255); fill-opacity: 0; fill-rule: nonzero; opacity: 1;" vector-effect="non-scaling-stroke"  transform=" translate(0, 0)" d="M -287.21732 -174.85828 L -287.21732 91.49686 C -287.21732 91.49686 -287.4987 119.12057 -310.99596999999994 137.15336 C -334.49323999999996 155.18615 -331.2145499999999 151.36101 -331.2145499999999 151.36101 L -310.99596999999994 174.85827999999998 C -310.99596999999994 174.85827999999998 -250.34022999999993 159.01128999999997 -245.42219999999995 97.80909999999997 C -240.50416999999996 36.60690999999997 -242.14350999999994 34.42111999999997 -242.14350999999994 34.42111999999997 L -210.99596999999994 34.42111999999997 C -210.99596999999994 34.42111999999997 -222.92856999999995 83.05499999999998 -181.39850999999993 97.80909999999997 C -139.8684599999999 112.56319999999997 -111.99959999999993 94.53040999999997 -111.99959999999993 94.53040999999997 L -90.08555999999993 80.80551999999997 L -92.21423999999993 55.20012999999997 L -114.35253999999993 66.74033999999997 L -126.90314999999994 72.36120999999997 L -126.90314999999994 72.36120999999997 C -136.00103999999993 76.43575999999997 -146.52170999999993 75.77019999999997 -155.03359999999995 70.58161999999997 C -163.54548999999994 65.39303999999997 -168.95741999999996 56.34656999999997 -169.50415999999996 46.39294999999997 L -169.73244999999994 42.23683999999997 L -169.60336999999996 39.37380999999997 L -169.60336999999996 39.37380999999997 C -168.79862999999995 21.524109999999972 -154.38341999999994 7.305189999999968 -136.52435999999994 6.74524999999997 L -92.21422999999994 5.35597999999997 L -85.92757999999995 79.22984999999997 L -83.58427999999995 100.54132999999997 L -50.25094999999995 100.54132999999997 L -50.25094999999995 34.42110999999997 L 16.417990000000053 34.42110999999997 L 36.768190000000054 100.54132999999997 L 90.86655000000005 100.54132999999997 C 90.86655000000005 100.54132999999997 116.54961000000004 36.606899999999975 116.54961000000004 34.42110999999997 C 116.54961000000004 32.23531999999997 171.74087000000003 34.42110999999997 171.74087000000003 34.42110999999997 C 171.74087000000003 34.42110999999997 162.51820000000004 97.80908999999997 217.70946000000004 104.36646999999996 C 262.14317000000005 109.64571999999997 285.33683 88.61313999999996 293.10012000000006 80.80551999999997 C 293.14931000000007 80.75604999999997 292.82024000000007 55.73430999999997 291.2959000000001 55.20012999999997 C 289.7633900000001 54.663089999999976 274.5823000000001 67.97774999999997 258.8582800000001 72.37626999999998 C 244.1676900000001 76.48570999999998 228.9765900000001 71.82843999999997 224.73234000000008 67.94331999999997 C 223.03518000000008 66.38976999999997 218.1842900000001 62.156279999999974 215.5340500000001 55.20012999999997 C 213.3593700000001 49.49216999999997 213.0764900000001 41.447289999999974 213.74623000000008 35.829409999999974 C 215.35249000000007 22.355839999999972 228.0014700000001 13.268489999999975 228.8642600000001 12.807589999999973 C 249.73836000000009 1.6566999999999723 291.2959100000001 5.355979999999973 291.2959100000001 5.355979999999973 L 296.87148000000013 79.22984999999997 L 300.76958000000013 100.54132999999997 L 331.37067000000013 100.54132999999997 L 331.37067000000013 -59.62669000000004 C 331.37067000000013 -59.62669000000004 321.5346000000001 -109.35347000000004 271.26138000000014 -106.62123000000004 C 220.98816000000014 -103.88899000000004 182.19034000000016 -88.58844000000005 182.19034000000016 -88.58844000000005 L 188.20127000000016 -65.63762000000006 C 188.20127000000016 -65.63762000000006 249.94990000000016 -85.30975000000005 271.26138000000014 -74.38079000000005 C 292.57286000000016 -63.451830000000044 289.84061000000014 -51.97642000000005 289.84061000000014 -51.97642000000005 L 289.84061000000014 -21.375330000000048 C 289.84061000000014 -21.375330000000048 235.67322000000013 -25.21772000000005 209.00656000000015 -10.130000000000049 C 182.33989000000014 4.95771999999995 173.56796000000014 30.57174999999995 173.56796000000014 30.57174999999995 L 118.42842000000014 30.57174999999995 C 118.42842000000014 30.57174999999995 147.90210000000013 -68.93932000000005 150.00737000000015 -88.58845000000005 C 152.11263000000014 -108.23757000000005 150.00737000000015 -103.84129000000006 150.00737000000015 -103.84129000000006 L 108.25298000000015 -103.84129000000006 C 108.25298000000015 -103.84129000000006 99.48105000000015 -32.96410000000006 86.14772000000015 7.7376599999999485 C 72.81439000000015 48.439409999999945 67.90211000000015 60.01835999999995 67.90211000000015 60.01835999999995 C 67.90211000000015 60.01835999999995 24.744220000000148 -102.78866000000005 20.182810000000153 -103.84129000000004 C 15.621410000000154 -104.89392000000004 -25.559509999999847 -103.84129000000004 -25.559509999999847 -103.84129000000004 L 16.418000000000156 30.571749999999952 L -50.25093999999985 30.571749999999952 L -50.25093999999985 -51.97642000000005 C -50.25093999999985 -51.97642000000005 -51.64912999999985 -109.73004000000005 -120.04291999999984 -106.62123000000005 C -188.43669999999986 -103.51242000000005 -201.11225999999982 -88.58844000000005 -201.11225999999982 -88.58844000000005 L -194.72927999999982 -65.63762000000006 C -194.72927999999982 -65.63762000000006 -140.26118999999983 -82.46590000000006 -117.70799999999981 -74.38079000000005 C -95.15480999999981 -66.29568000000005 -93.87820999999981 -56.14879000000005 -93.87820999999981 -56.14879000000005 L -93.87820999999981 -21.375330000000048 C -93.87820999999981 -21.375330000000048 -143.2399099999998 -26.725750000000048 -175.5803399999998 -10.130000000000049 C -207.9207699999998 6.4657399999999505 -210.9959399999998 30.57174999999995 -210.9959399999998 30.57174999999995 L -242.14347999999978 30.57174999999995 L -242.14347999999978 -174.85830000000004 z" stroke-linecap="round" />
</g>
</svg>