<?xml version="1.0" encoding="UTF-8" standalone="no" ?>
<!DOCTYPE svg PUBLIC "-//W3C//DTD SVG 1.1//EN" "http://www.w3.org/Graphics/SVG/1.1/DTD/svg11.dtd">
<svg xmlns="http://www.w3.org/2000/svg" xmlns:xlink="http://www.w3.org/1999/xlink" version="1.1" width="1000" height="1000" viewBox="0 0 1000 1000" xml:space="preserve">
<desc>Created with Fabric.js 4.6.0</desc>
<defs>
</defs>
<g transform="matrix(1 0 0 1 563.68 466.88)" id="1HAdyF1Y01cEkquqSpnDb"  >
<path style="stroke: rgb(0,0,0); stroke-width: 1; stroke-dasharray: none; stroke-linecap: butt; stroke-dashoffset: 0; stroke-linejoin: miter; stroke-miterlimit: 4; fill: rgb(255,255,255); fill-opacity: 0; fill-rule: nonzero; opacity: 1;" vector-effect="non-scaling-stroke"  transform=" translate(0, 0)" d="M -48.41434 281.25164 C -48.41434 281.25164 -42.79393 281.15023 -35.186530000000005 279.77065 C -23.416080000000004 277.63611 -7.189960000000006 273.64596 -1.9983600000000052 271.56932 C 6.548649999999995 268.15052000000003 50.730959999999996 255.28694000000002 50.730959999999996 255.28694000000002 C 50.730959999999996 255.28694000000002 42.32293 252.54121 35.15633 248.08532000000002 C 29.346449999999997 244.47298000000004 24.821849999999998 239.19258000000002 22.52583 237.66190000000003 C 18.52477 234.99453000000003 37.41583 246.89487000000003 72.70426 223.84039000000004 C 77.71968000000001 220.56374000000005 87.77722 209.30849000000003 90.47036 205.18327000000005 C 93.11535 201.13180000000006 88.52568 204.16713000000004 79.37303 205.58378000000005 C 73.56587999999999 206.48261000000005 67.43367 206.43405000000004 60.987359999999995 205.18327000000005 C 55.54013 204.12635000000006 50.65745999999999 203.17769000000004 46.28124 202.32628000000005 C 4.651619999999994 194.22703000000004 8.850609999999996 194.92686000000006 8.850609999999996 194.92686000000006 L 0.16864999999999597 194.92686000000006 C 0.16864999999999597 194.92686000000006 -3.1150700000000042 205.98086000000006 -11.561470000000003 213.64340000000007 C -15.767550000000004 217.45914000000008 -21.253850000000003 220.43388000000007 -28.252400000000005 220.78381000000007 C -36.31307 221.18684000000007 -44.373740000000005 220.81831000000008 -51.577690000000004 219.73728000000008 C -63.18882000000001 217.9949200000001 -72.57435000000001 214.40165000000007 -76.14714000000001 209.20486000000008 C -78.84523 205.2803700000001 -81.65762000000001 199.64125000000007 -83.73198000000001 194.5781800000001 C -86.10872 188.7770600000001 -87.51656000000001 183.73218000000008 -86.67346 182.8890700000001 C -85.82584 182.04145000000008 -73.45100000000001 179.9804400000001 -61.762280000000004 178.2530600000001 C -51.67719 176.7626700000001 -42.10287 175.5206400000001 -40.883990000000004 175.5206400000001 C -38.252410000000005 175.5206400000001 -35.87417000000001 178.6785300000001 -24.295220000000004 182.8890600000001 C -12.716270000000003 187.0995900000001 0.16863999999999635 191.3101100000001 0.16863999999999635 191.3101100000001 L 0.16863999999999635 194.57817000000009 C 0.16863999999999635 194.57817000000009 18.843919999999997 196.83658000000008 37.521469999999994 194.93013000000008 C 45.347649999999994 194.13130000000007 53.636269999999996 193.04392000000007 61.40078 191.5664500000001 C 72.17695 189.5159000000001 81.9436 186.7139300000001 88.06338 182.8890700000001 C 99.05734 176.0178500000001 119.56886 154.00159000000008 131.01903 129.00220000000007 C 141.49510999999998 106.12957000000007 143.37329999999997 80.04705000000007 144.37917 75.52065000000007 C 146.48442999999997 66.04697000000007 150.73094999999998 38.56977000000008 150.73094999999998 28.569770000000076 C 150.73094999999998 18.569770000000076 142.80022999999997 -25.114439999999924 144.37917 -27.746019999999923 C 145.95811999999998 -30.377599999999923 130.49272 4.885560000000076 131.01903 21.201350000000076 C 131.54534999999998 37.517140000000076 113.12859999999999 62.25398000000008 106.28649999999999 66.46451000000008 C 102.82404999999999 68.59525000000008 98.79936 67.41117000000007 100.06414 69.69181000000007 C 100.28681999999999 70.09334000000007 108.26075 69.17716000000007 108.94986 69.69181000000007 C 109.80024 70.32690000000008 100.36657 74.02893000000007 101.68035 74.81807000000008 C 105.20437000000001 76.93481000000008 109.90487 79.56957000000008 113.14984000000001 82.52822000000008 C 124.15308000000002 92.56058000000007 127.0657 93.20783000000007 127.0657 93.20783000000007 L 132.56732 93.20783000000007 C 132.56732 93.20783000000007 121.24046 98.38582000000007 116.70971 98.38582000000007 C 112.17897 98.38582000000007 94.05599000000001 81.23372000000006 75.60938999999999 78.96834000000007 C 57.16278999999999 76.70297000000006 42.923309999999994 77.99747000000006 35.156319999999994 80.91009000000007 C 27.389329999999994 83.82271000000007 24.153079999999996 75.52065000000007 24.153079999999996 75.52065000000007 C 24.153079999999996 75.52065000000007 22.858579999999996 65.69973000000007 37.42169 65.05248000000007 C 51.9848 64.40523000000007 96.96195 69.69180000000007 96.96195 69.69180000000007 C 96.96195 69.69180000000007 106.91049 68.13329000000007 110.1695 46.00636000000007 C 113.42851 23.87943000000007 113.14984 18.04344000000007 113.14984 18.04344000000007 C 113.14984 18.04344000000007 114.28613 36.57239000000007 96.96195 48.06467000000007 C 79.63776 59.55695000000007 67.28785 63.33054000000007 67.28785 63.33054000000007 C 67.28785 63.33054000000007 79.46624 49.77994000000007 79.63776 44.97720000000007 C 79.80929 40.17446000000007 77.57944 33.31339000000007 77.57944 33.31339000000007 C 77.57944 33.31339000000007 57.79656000000001 54.11730000000007 44.49606000000001 58.058180000000064 C 31.195570000000007 61.99907000000007 33.16601000000001 58.058180000000064 33.16601000000001 58.058180000000064 C 33.16601000000001 58.058180000000064 53.637710000000006 45.722670000000065 64.88711 15.879150000000067 C 69.04945000000001 4.8368800000000665 71.94923 -8.602309999999932 72.08227000000001 -24.700439999999936 C 72.43955000000001 -67.93180999999993 67.89114000000001 -43.28763999999994 60.98734000000001 -22.685799999999936 C 59.63460000000001 -18.64904999999994 52.60458000000001 -8.589009999999936 44.496060000000014 -0.4720899999999375 C 36.93035000000001 7.1014600000000625 28.394420000000014 12.796100000000063 23.499900000000014 15.385430000000062 C 8.154830000000015 23.50337000000006 -6.534029999999987 28.56976000000006 -6.534029999999987 28.56976000000006 L -58.034449999999985 42.18138000000006 C -58.034449999999985 42.18138000000006 -11.460139999999988 8.191230000000061 -6.534029999999987 -4.124039999999937 C -1.6079199999999867 -16.439309999999935 -3.847259999999987 -24.700429999999937 -3.847259999999987 -24.700429999999937 C -3.847259999999987 -24.700429999999937 -6.143859999999988 -15.379859999999937 -11.623309999999986 -6.704059999999938 C -14.485749999999985 -2.171869999999938 -25.697059999999986 8.590830000000063 -37.31557999999998 18.42350000000006 C -47.93794999999999 27.413140000000062 -58.90068999999998 35.62541000000006 -64.13472999999999 37.58817000000006 C -75.09362999999999 41.69776000000006 -89.24888999999999 44.97720000000006 -89.24888999999999 44.97720000000006 C -89.24888999999999 44.97720000000006 -72.47565999999999 29.10717000000006 -63.682529999999986 11.043770000000059 C -55.27277999999998 -6.232089999999943 -54.79943999999999 -25.810909999999943 -55.91554999999998 -22.685799999999944 C -58.19865999999998 -16.293109999999942 -57.862839999999984 -12.617349999999943 -67.45188999999998 3.364390000000057 C -77.04092999999997 19.34613000000006 -83.76943999999997 18.043450000000057 -83.76943999999997 18.043450000000057 C -83.76943999999997 18.043450000000057 -83.26921999999998 -40.494009999999946 -97.88108999999997 -56.47574999999994 C -103.85582999999997 -63.01062999999994 -104.97818999999997 -65.65940999999994 -109.32435999999997 -65.38061999999994 C -115.60720999999997 -64.97758999999994 -108.81045999999996 -23.295529999999935 -106.38974999999996 -6.704059999999934 C -103.86738999999996 10.584080000000064 -95.64559999999996 31.868900000000068 -93.35847999999996 33.313400000000065 C -86.24237999999995 37.807780000000065 -89.24888999999996 37.588180000000065 -89.24888999999996 37.588180000000065 C -89.24888999999996 37.588180000000065 -105.10276999999996 38.213430000000066 -117.10276999999996 15.280090000000065 C -129.10276999999996 -7.653239999999936 -130.84475999999995 -10.319909999999936 -130.84475999999995 -10.319909999999936 C -130.84475999999995 -10.319909999999936 -130.31142999999994 17.146760000000064 -120.71142999999995 24.346760000000067 C -111.11142999999996 31.546760000000067 -109.51142999999995 33.313400000000065 -109.51142999999995 33.313400000000065 C -109.51142999999995 33.313400000000065 -143.11142999999996 19.813430000000068 -148.44475999999995 7.813430000000064 C -153.77808999999993 -4.186569999999936 -152.44475999999995 3.798230000000064 -152.44475999999995 3.798230000000064 C -152.44475999999995 3.798230000000064 -151.74382999999995 9.845790000000065 -148.44475999999995 15.879170000000064 C -144.92920999999996 22.308450000000065 -138.75801999999993 28.812330000000067 -137.24475999999996 31.013430000000064 C -135.32877999999997 33.80031000000007 -153.23078999999996 24.038600000000063 -166.42172999999997 3.364400000000064 C -173.42589999999996 -7.613259999999936 -179.81750999999997 -28.097049999999935 -179.63253999999998 -37.253239999999934 C -179.09920999999997 -63.65323999999993 -183.09920999999997 -51.386569999999935 -183.09920999999997 -51.386569999999935 C -183.09920999999997 -51.386569999999935 -185.51382999999998 -36.93895999999994 -188.44745999999998 -18.839919999999935 C -189.59170999999998 -11.780449999999934 -190.81491999999997 -4.1654599999999355 -192.00460999999999 3.364390000000064 C -193.02157 9.801030000000065 -194.01404 16.175460000000065 -194.91174999999998 22.087530000000065 C -197.13065999999998 36.70072000000006 -198.77064 48.489030000000064 -198.77064 51.40946000000007 C -198.77064 60.43724000000007 -185.53535 58.05819000000007 -185.53535 58.05819000000007 C -185.53535 58.05819000000007 -174.11405 51.932870000000065 -166.42174 49.735070000000064 C -158.72943 47.53727000000006 -149.26894 46.00637000000006 -148.44477 46.00637000000006 C -147.62059 46.00637000000006 -152.96021000000002 42.31749000000006 -153.78438 39.295510000000064 C -154.60856 36.273530000000065 -152.44477 37.588180000000065 -152.44477 37.588180000000065 C -152.44477 37.588180000000065 -142.06251 41.63193000000007 -135.19438 42.18138000000007 C -128.32625 42.73083000000007 -92.56066 53.757730000000066 -83.76944999999999 61.72477000000006 C -74.97824 69.69180000000006 -77.7768 69.69180000000006 -77.7768 69.69180000000006 C -77.7768 69.69180000000006 -103.67846999999999 57.234010000000055 -120.71144 58.05819000000006 C -137.74441 58.88237000000006 -150.96998 60.03385000000006 -161.13481 63.33055000000006 C -171.29964999999999 66.62725000000006 -182.56338 65.52835000000006 -188.33261 63.33055000000006 C -194.10183999999998 61.13275000000006 -196.02491999999998 54.30719000000006 -196.02491999999998 54.30719000000006 L -198.77065 63.33055000000006 C -198.77065 63.33055000000006 -196.86687999999998 82.65917000000006 -194.06313999999998 90.13581000000006 C -192.65466999999998 93.89173000000007 -190.06694999999996 103.30806000000007 -186.95161999999996 112.69774000000007 C -183.86548999999997 121.99940000000007 -180.26158999999996 131.27491000000006 -176.77341999999996 134.99563000000006 C -169.76406999999995 142.47227000000007 -164.06475999999995 152.75264000000007 -153.78438999999997 156.49096000000006 C -143.50401999999997 160.22928000000005 -137.24477999999996 160.22928000000005 -137.24477999999996 160.22928000000005 C -137.24477999999996 160.22928000000005 -168.61324999999997 158.82741000000004 -183.09922999999998 143.40685000000005 C -197.58521 127.98629000000005 -198.77065999999996 120.97694000000004 -198.77065999999996 120.97694000000004 C -198.77065999999996 120.97694000000004 -187.57648999999998 158.36012000000005 -179.63255999999996 167.70591000000005 C -171.68862999999996 177.05170000000004 -167.89491999999996 184.30078000000003 -158.08183999999994 191.31012000000004 C -148.26875999999993 198.31947000000005 -137.24477999999993 205.18326000000005 -137.24477999999993 205.18326000000005 C -137.24477999999993 205.18326000000005 -159.77987999999993 202.59668000000005 -181.28362999999993 196.35268000000005 C -190.37013999999994 193.71425000000005 -199.27249999999992 190.42278000000005 -206.21266999999995 186.39749000000006 C -229.57715999999994 172.84609000000006 -223.96967999999995 175.52064000000007 -223.96967999999995 175.52064000000007 C -223.96967999999995 175.52064000000007 -239.93065999999996 165.99985000000007 -255.45395999999994 147.50460000000007 C -262.40381999999994 139.22418000000008 -269.26595999999995 129.14491000000007 -274.56877999999995 117.31582000000006 C -277.20456999999993 111.43612000000006 -279.45510999999993 105.12411000000006 -281.13967999999994 98.38581000000006 C -285.15410999999995 82.32810000000006 -288.00980999999996 69.36396000000006 -290.00109999999995 58.743020000000065 C -294.28150999999997 35.912680000000066 -294.56782999999996 23.909340000000064 -293.78335999999996 15.280090000000065 C -293.39995999999996 11.062640000000066 -293.66418999999996 -5.5203099999999345 -291.57600999999994 -18.839919999999935 C -290.40365999999995 -26.317819999999934 -291.34982999999994 -29.001729999999935 -290.0011099999999 -34.55216999999993 C -288.9875599999999 -38.72327999999993 -287.9109699999999 -50.67051999999993 -286.8141099999999 -56.475749999999934 C -284.1762999999999 -70.43653999999994 -277.3376099999999 -81.16658999999993 -275.3925599999999 -86.61273999999993 C -273.0303399999999 -93.22695999999993 -262.1199999999999 -113.07395999999993 -249.07866999999987 -134.39566999999994 C -241.14407999999986 -147.36819999999994 -232.42064999999988 -160.88663999999994 -224.35365999999988 -172.30280999999994 C -218.27192999999988 -180.90949999999992 -212.56329999999988 -188.32131999999993 -207.84704999999988 -193.40355999999994 C -204.0856199999999 -197.45688999999993 -200.9554299999999 -200.02841999999995 -198.77064999999988 -200.54247999999995 C -184.24073999999987 -203.96127999999996 -179.63254999999987 -206.40030999999996 -179.63254999999987 -206.40030999999996 C -179.63254999999987 -206.40030999999996 -199.84257999999986 -210.20246999999995 -225.71052999999986 -221.21885999999995 C -237.49034999999986 -226.23552999999995 -250.44346999999988 -232.74823999999995 -263.19568999999984 -241.07919999999996 C -267.29733999999985 -243.75878999999995 -277.12532999999985 -241.81940999999995 -281.1396799999998 -244.88591999999997 C -282.4034399999998 -245.85128999999998 -281.7916999999998 -247.70945999999998 -282.63712999999984 -248.80187999999998 C -284.90189999999984 -251.72829 -287.6887399999998 -254.12697999999997 -290.00109999999984 -256.64596 C -294.18375999999984 -261.20235 -300.15034999999983 -264.29057 -303.81706999999983 -267.10814 C -323.65466999999984 -282.35170999999997 -328.5194799999998 -281.40031 -328.5194799999998 -281.40031 C -328.5194799999998 -281.40031 -351.6902099999998 -273.47348 -344.9828899999998 -229.57103999999998 C -343.3458499999998 -218.85586999999998 -339.8926799999998 -205.63445 -335.36805999999984 -191.66206999999997 C -331.58936999999986 -179.99319999999997 -327.06338999999986 -167.80056999999996 -322.22387999999984 -156.10659999999996 C -317.76653999999985 -145.33610999999996 -313.0432299999998 -134.98863999999995 -308.39282999999983 -125.86298999999995 C -299.3669699999998 -108.15118999999996 -290.61578999999983 -95.04202999999995 -284.61703999999986 -92.37591999999995 C -277.1807899999999 -89.07091999999994 -269.24692999999985 -98.57923999999996 -262.78211999999985 -110.00002999999995 C -254.93422999999984 -123.86417999999995 -249.25118999999984 -140.54664999999994 -249.25118999999984 -140.54664999999994 C -249.25118999999984 -140.54664999999994 -244.37313999999984 -146.64420999999993 -253.51947999999985 -142.98566999999994 C -262.6658199999998 -139.32712999999995 -265.10484999999983 -141.15639999999993 -262.05606999999986 -147.86371999999994 C -259.00728999999984 -154.57103999999995 -283.39752999999985 -144.81493999999995 -284.61704999999984 -147.86371999999994 C -285.83655999999985 -150.91249999999994 -275.39255999999983 -168.16633999999993 -275.39255999999983 -168.16633999999993 L -284.61704999999984 -168.16633999999993 C -284.61704999999984 -168.16633999999993 -279.62535999999983 -184.03935999999993 -275.39255999999983 -186.68485999999993 C -271.15975999999984 -189.33035999999993 -292.72515999999985 -188.80125999999993 -293.78335999999985 -194.09226999999993 C -294.84155999999984 -199.38327999999993 -285.9015899999998 -208.90707999999992 -281.1396799999998 -209.96528999999992 C -276.3777799999998 -211.02348999999992 -293.78335999999985 -216.31449999999992 -293.78335999999985 -216.31449999999992 C -293.78335999999985 -216.31449999999992 -292.6342099999998 -220.54729999999992 -286.8140999999998 -224.78010999999992 C -280.9939899999998 -229.01290999999992 -270.3313299999998 -231.68744999999993 -284.6170399999998 -229.57104999999993 C -298.9027499999998 -227.45464999999993 -298.5452599999998 -224.80914999999993 -293.7833499999998 -229.57104999999993 C -289.0214499999998 -234.33294999999993 -278.8775899999998 -236.42031999999992 -278.8775899999998 -236.42031999999992 C -278.8775899999998 -236.42031999999992 -282.72697999999986 -236.94941999999992 -281.1396799999998 -244.88592999999992 C -279.5523799999998 -252.82243999999992 -317.4619799999998 -278.8058099999999 -322.22387999999984 -279.3349099999999 C -326.98577999999986 -279.86400999999995 -328.5194799999998 -281.40030999999993 -328.5194799999998 -281.40030999999993 C -328.5194799999998 -281.40030999999993 -296.8670099999998 -276.10284999999993 -291.5759999999998 -275.57374999999996 C -288.4232099999998 -275.25847 -268.8503999999998 -270.99796999999995 -245.93332999999978 -269.17317999999995 C -230.3910199999998 -267.93560999999994 -213.3105099999998 -267.8183399999999 -198.7706399999998 -270.81184999999994 C -189.7589399999998 -272.6671999999999 -181.5644699999998 -273.8918699999999 -174.2018699999998 -274.6853899999999 C -152.16960999999978 -277.0599699999999 -137.5865499999998 -275.5737499999999 -130.84476999999978 -275.5737499999999 C -126.62292999999978 -275.5737499999999 -114.66603999999978 -271.9602299999999 -102.50885999999979 -268.0159299999999 C -88.76496999999978 -263.55682999999993 -74.76508999999979 -258.6749499999999 -71.39599999999979 -258.1134399999999 C -65.04678999999979 -257.0552399999999 -61.670439999999786 -261.2880399999999 -46.32651999999979 -267.1081499999999 C -30.98259999999979 -272.9282599999999 -22.936159999999788 -272.39915999999994 -6.534039999999791 -270.81184999999994 C 9.868080000000209 -269.2245499999999 19.35119000000021 -261.2880399999999 22.52579000000021 -261.2880399999999 C 24.54927000000021 -261.2880399999999 42.84666000000021 -261.9329199999999 64.61895000000021 -256.6459599999999 C 77.00480000000022 -253.63830999999988 90.51521000000021 -248.7109599999999 102.79383000000021 -240.6531199999999 C 112.7296100000002 -234.13275999999988 121.66953000000021 -229.6166899999999 129.34258000000023 -226.4900699999999 C 147.82029000000023 -218.9607799999999 158.95136000000022 -219.4890899999999 158.95136000000022 -219.4890899999999 C 158.95136000000022 -219.4890899999999 172.33407000000022 -213.05619999999988 189.08333000000022 -204.75078999999988 C 199.36999000000023 -199.64996999999988 210.92647000000022 -193.84284999999988 221.43250000000023 -188.38585999999987 C 233.63775000000024 -182.04626999999988 244.42528000000024 -176.17920999999987 250.15711000000022 -172.44105999999988 C 255.9280400000002 -168.67740999999987 265.80304000000024 -165.53324999999987 276.6992800000002 -162.98466999999988 C 301.1094800000002 -157.2752499999999 330.6449100000002 -154.55487999999988 330.6449100000002 -154.55487999999988 C 330.6449100000002 -154.55487999999988 347.7180800000002 -151.9287599999999 346.09206000000023 -147.8637199999999 C 345.16324000000026 -145.5416599999999 343.70384000000024 -124.01110999999989 338.2285300000002 -101.42842999999988 C 336.0997900000002 -92.64853999999988 333.3640100000002 -83.70961999999987 329.8163800000002 -75.67866999999988 C 326.5147300000002 -68.20456999999988 322.5099000000002 -61.51689999999988 317.6367800000002 -56.47573999999989 C 309.5622000000002 -48.12271999999989 298.62324000000024 -38.82715999999989 287.5656200000002 -30.24700999999989 C 282.9339700000002 -26.65308999999989 281.0041900000002 -22.35089999999989 277.7733600000002 -18.83990999999989 C 273.46866000000017 -14.16192999999989 268.0655900000002 -10.38668999999989 262.6126000000002 -6.70404999999989 C 253.39888000000022 -0.48161999999989025 239.07556000000022 3.6269600000001088 237.76277000000022 3.36440000000011 C 233.6977300000002 2.5513900000001097 226.70264000000023 -0.47206999999988986 226.70264000000023 -0.47206999999988986 C 226.70264000000023 -0.47206999999988986 225.56081000000023 -15.23172999999989 224.36619000000022 -27.746009999999888 C 223.4035800000002 -37.82985999999989 222.41142000000022 -45.75477999999988 221.9183500000002 -48.71317999999989 C 220.8133800000002 -55.343009999999886 254.1502700000002 -56.47573999999989 256.9127000000002 -56.47573999999989 C 259.6751300000002 -56.47573999999989 256.9127000000002 -65.76629999999989 256.9127000000002 -65.76629999999989 C 256.9127000000002 -65.76629999999989 269.0674000000002 -56.92651999999989 270.7248500000002 -60.793919999999886 C 272.3823100000002 -64.66131999999989 265.1999900000002 -86.61271999999988 265.1999900000002 -86.61271999999988 C 265.1999900000002 -86.61271999999988 276.8022000000002 -89.61346999999988 276.24971000000016 -92.37589999999989 C 275.6972200000002 -95.13832999999988 261.3325800000002 -100.57292999999989 261.3325800000002 -100.57292999999989 C 261.3325800000002 -100.57292999999989 270.7248500000002 -103.33535999999988 270.7248500000002 -106.65027999999988 C 270.7248500000002 -109.96519999999988 256.9127000000002 -116.59502999999988 256.9127000000002 -116.59502999999988 L 270.7248500000002 -130.95966999999987 C 270.7248500000002 -130.95966999999987 286.19446000000016 -137.23171999999988 286.19446000000016 -140.54663999999988 C 286.19446000000016 -143.86155999999988 276.24971000000016 -145.32430999999988 276.24971000000016 -145.32430999999988 C 276.24971000000016 -145.32430999999988 324.8684900000002 -152.8360799999999 334.2607600000002 -147.86370999999988 C 343.6530300000002 -142.8913299999999 337.85893000000016 -148.9813799999999 337.85893000000016 -148.9813799999999 C 337.85893000000016 -148.9813799999999 274.15335000000016 -151.77325999999988 260.1939600000002 -148.9813799999999 C 246.23457000000016 -146.1894999999999 222.4875200000002 -142.2591799999999 209.07756000000018 -145.32430999999988 C 195.66760000000016 -148.3894399999999 180.67089000000018 -148.20566999999988 174.32168000000019 -154.55486999999988 C 171.24511000000018 -157.63143999999988 183.26272000000017 -143.90980999999988 196.55911000000017 -118.11145999999988 C 202.15617000000017 -107.25175999999988 207.9798200000002 -94.25212999999988 212.99957000000018 -79.46472999999989 C 220.6647300000002 -56.88441999999989 226.45544000000018 -30.13555999999989 226.70263000000017 -0.4720699999998885 C 226.84522000000018 16.638550000000112 229.26968000000016 28.86270000000011 229.76184000000018 42.181390000000114 C 230.71802000000017 68.05715000000012 229.58291000000017 90.62526000000011 226.70263000000017 109.06010000000012 C 225.24887000000018 118.36466000000011 222.69396000000017 127.49664000000013 219.71261000000018 135.8124000000001 C 214.7184600000002 149.7423800000001 208.52768000000017 161.38202000000013 204.3117600000002 167.7059100000001 C 200.6665600000002 173.1737100000001 193.3932300000002 181.7075200000001 184.0497900000002 191.3473500000001 C 179.2157100000002 196.33478000000008 173.8275100000002 201.61826000000008 168.1009600000002 206.9263600000001 C 154.04267000000021 219.95738000000011 137.94526000000022 233.1367500000001 123.0010900000002 242.4484900000001 C 116.97827000000021 246.2013200000001 107.60247000000021 251.7339700000001 98.3241300000002 254.2782500000001 C 87.0923100000002 257.3582100000001 76.1056000000002 257.0818500000001 72.7042000000002 257.1838400000001 C 62.8784100000002 257.4784600000001 57.6823900000002 255.8855700000001 51.6333700000002 255.28695000000008 C 46.7580200000002 254.80448000000007 39.3842900000002 258.1712100000001 39.3842900000002 258.1712100000001 C 39.3842900000002 258.1712100000001 -1.9485599999998016 270.9364200000001 -3.847289999999802 271.5693300000001 C -5.7460199999998025 272.2022400000001 -37.9713699999998 282.83393000000007 -48.414409999999805 281.2516500000001 C -54.737249999999804 280.2936400000001 -73.26891999999981 272.6952100000001 -89.2489199999998 265.8171200000001 C -94.2564799999998 263.6617700000001 -102.0381599999998 261.2858300000001 -107.5017099999998 258.1712100000001 C -110.1172999999998 256.6801300000001 -116.6940899999998 252.20967000000007 -117.1027999999998 252.0345100000001 C -123.6629199999998 249.2230300000001 -139.0667199999998 237.1574600000001 -151.1234599999998 226.5557000000001 C -159.42302999999978 219.25770000000009 -162.3914899999998 213.06274000000008 -163.2946499999998 212.0305500000001 C -165.5098399999998 209.49890000000008 -167.7066199999998 202.58199000000008 -167.7066199999998 202.58199000000008 C -167.7066199999998 202.58199000000008 -169.2588199999998 196.84068000000008 -169.2588199999998 200.63815000000008 C -169.2588199999998 204.43562000000009 -159.12886999999978 218.82328000000007 -156.0555799999998 221.89656000000008 C -154.72075999999979 223.2313800000001 -146.7763699999998 230.49091000000007 -137.2447699999998 237.6619100000001 C -124.83088999999978 247.0013800000001 -110.00041999999979 256.7002000000001 -106.3897599999998 258.1712100000001 C -100.0067799999998 260.77168000000006 -63.708229999999794 277.42937000000006 -58.0344699999998 278.8478100000001 C -52.3607099999998 280.26625000000007 -48.4143899999998 281.2516500000001 -48.4143899999998 281.2516500000001 z" stroke-linecap="round" />
</g>
<g transform="matrix(1 0 0 1 449.18 396.62)" id="bdn-LF5w0yG-KzPDPe5Ez"  >
<path style="stroke: rgb(0,0,0); stroke-width: 1; stroke-dasharray: none; stroke-linecap: butt; stroke-dashoffset: 0; stroke-linejoin: miter; stroke-miterlimit: 4; fill: rgb(255,255,255); fill-opacity: 0; fill-rule: nonzero; opacity: 1;" vector-effect="non-scaling-stroke"  transform=" translate(0, 0)" d="M 0 0 z" stroke-linecap="round" />
</g>
</svg>