<?xml version="1.0" encoding="UTF-8" standalone="no" ?>
<!DOCTYPE svg PUBLIC "-//W3C//DTD SVG 1.1//EN" "http://www.w3.org/Graphics/SVG/1.1/DTD/svg11.dtd">
<svg xmlns="http://www.w3.org/2000/svg" xmlns:xlink="http://www.w3.org/1999/xlink" version="1.1" width="1000" height="1000" viewBox="0 0 1000 1000" xml:space="preserve">
<desc>Created with Fabric.js 4.6.0</desc>
<defs>
</defs>
<g transform="matrix(1 0 0 1 460.2 516.53)" id="CyxNh04K_iuFFpQhg0EjV"  >
<path style="stroke: rgb(255,0,0); stroke-width: 1; stroke-dasharray: none; stroke-linecap: butt; stroke-dashoffset: 0; stroke-linejoin: miter; stroke-miterlimit: 4; fill: rgb(255,255,255); fill-opacity: 0; fill-rule: nonzero; opacity: 1;" vector-effect="non-scaling-stroke"  transform=" translate(0, 0)" d="M 102.34406 -234.11453 C 102.34406 -234.11453 156.94387 -221.96224 163.78598 -223.01487 C 170.62809 -224.0675 192.73335 -202.48855 202.73335 -166.69908 C 212.73335 -130.90961000000001 212.73335 -107.75171 215.89124 -103.54119 C 216.83872000000002 -102.27788 226.41233 -97.23372 231.25384000000003 -91.49141 C 232.94018000000003 -89.49131 236.62670000000003 -80.48949 236.54429000000002 -77.7728 C 236.39008 -72.6892 233.56595000000002 -68.49365 234.33669 -67.64401000000001 C 234.63953 -67.31016000000001 236.51446 -73.22016 235.95293 -79.35002 C 235.57238 -83.50423 233.38837 -87.41718 231.47285000000002 -90.8737 C 230.2152 -93.14311 227.43988000000002 -94.10486 225.64289000000002 -95.29758 C 219.20346000000004 -99.57162 207.77946000000003 -98.50031 202.48487000000003 -98.95273 C 188.53744000000003 -100.14454 175.33772000000002 -96.57419 176.20640000000003 -94.45271 C 176.34078000000002 -94.12451999999999 173.39895000000004 -88.5364 172.78470000000004 -84.41189 C 172.55516000000006 -82.87057 164.05893000000003 -75.1398 160.26910000000004 -71.01497 C 160.09178000000003 -70.82197000000001 190.73396000000002 9.589129999999997 189.25590000000003 9.196829999999991 C 188.73793000000003 9.059349999999991 189.79594000000003 16.13949999999999 190.04356 21.49348999999999 C 190.13046000000003 23.372489999999992 189.08125 26.58972999999999 187.78532 28.90855999999999 C 185.65566 32.719199999999994 178.52667000000002 36.03958999999999 178.27118000000002 35.75847999999999 C 177.80346 35.24385999999999 181.3993 30.76541999999999 182.36051 29.12956999999999 C 183.72061 26.81485999999999 183.41897 25.85021999999999 182.64196 24.79592999999999 C 182.1775 24.165729999999993 182.35891 22.79379999999999 178.82063000000002 24.144049999999993 C 173.82063000000002 26.052109999999992 171.83490000000003 30.20669999999999 171.46923 29.665879999999994 C 171.20353 29.272919999999996 168.91485 30.853259999999995 167.02131 31.361929999999994 C 164.49423 32.040789999999994 159.09261 31.481039999999993 155.85072 31.598069999999993 C 151.57679 31.752359999999992 147.7669 29.25124999999999 147.28246 28.463189999999994 C 146.84937 27.758639999999993 151.40474999999998 27.267309999999995 152.70709 24.464619999999993 C 153.606 22.530139999999992 149.56605 19.649369999999994 149.25784 19.05756999999999 C 148.22342999999998 17.07137999999999 133.38599 12.37984999999999 123.30084 11.953079999999991 C 120.65437 11.84108999999999 118.36148999999999 14.06866999999999 117.99570999999999 14.70027999999999 C 116.13244999999999 17.91768999999999 119.82374999999999 22.08732999999999 119.54401999999999 21.42093999999999 C 119.00267 20.131289999999993 103.09428 18.13159999999999 102.62311 16.78328999999999 C 102.27904 15.79867999999999 98.95581 11.650099999999991 98.65759 10.63575999999999 C 98.18754 9.03694999999999 96.58427999999999 -2.687730000000009 100.04665 -6.529610000000009 C 101.27083 -7.887970000000009 106.79946 -10.77556000000001 113.07938 -10.374770000000009 C 119.61298 -9.957790000000008 132.77006 -5.693770000000009 138.60681 -7.946270000000009 C 142.27214999999998 -9.360790000000009 139.5738 -19.10524000000001 139.5738 -19.10524000000001 C 139.5738 -19.10524000000001 139.21959 -38.00399000000001 136.27391 -47.55698000000001 C 129.35156 -70.00656000000001 126.24131 -121.98478000000001 126.34279000000001 -121.95484 C 126.36955 -121.94694 112.71198000000001 -131.32741000000001 93.03421 -138.31476 C 89.50495000000001 -139.56796 71.53233 -145.07936 55.072500000000005 -144.59558 C 37.87088000000001 -144.09 22.04406 -137.46825 12.912880000000008 -133.08039000000002 C -1.043219999999991 -126.37398000000002 -7.5981299999999905 -114.34650000000002 -7.823199999999993 -112.94973000000002 C -7.911939999999992 -112.39900000000002 3.230040000000008 -117.12363000000002 10.374140000000008 -119.69300000000001 C 10.773870000000008 -119.83676000000001 5.432180000000008 -102.79615000000001 19.59933000000001 -94.13507000000001 C 20.33957000000001 -93.68252000000001 27.830160000000006 -90.08408000000001 35.31564000000001 -89.39595000000001 C 44.24996000000001 -88.57463000000001 54.60634000000001 -83.59789 58.310500000000005 -82.55394000000001 C 77.25691 -77.21427000000001 91.71995000000001 -74.36346 92.30506 -74.59070000000001 C 93.12044 -74.90736000000001 85.54507 -84.53259000000001 70.95175 -93.33467000000002 C 70.77210000000001 -93.44303000000002 73.06448 -92.02740000000001 73.70230000000001 -89.93357000000002 C 74.36734000000001 -87.75038000000002 73.35915000000001 -84.86575000000002 72.14604000000001 -83.99445000000001 C 70.49790000000002 -82.81069000000001 66.59004000000002 -81.66686000000001 63.46879000000001 -82.43649000000002 C 60.709640000000014 -83.11683000000002 58.037830000000014 -85.24067000000002 57.40064000000001 -85.35889000000002 C 56.24682000000001 -85.57297000000001 56.19570000000001 -89.64266000000002 57.01369000000001 -92.30402000000002 C 57.28308000000001 -93.18050000000002 58.25595000000001 -94.32939000000002 60.87993000000001 -94.41859000000002 C 61.58043000000001 -94.44240000000002 62.144270000000006 -94.82997000000002 62.92522000000001 -94.77620000000002 C 66.17500000000001 -94.55245000000002 69.82730000000001 -93.40088000000002 69.31074000000001 -93.43767000000001 C 68.77516000000001 -93.47582000000001 69.35925 -93.74518 67.97591000000001 -94.09101000000001 C 66.23984000000002 -94.52502000000001 62.35156000000001 -95.07946000000001 60.00861000000001 -95.44847000000001 C 57.11805000000001 -95.90373000000001 53.53034000000001 -95.85922000000001 52.73035000000001 -95.83006000000002 C 45.41215000000001 -95.56325000000001 29.219400000000007 -90.27134000000002 26.91987000000001 -91.43983000000001 C 4.324980000000011 -102.92126000000002 12.06409000000001 -119.74303000000002 13.50744000000001 -120.27448000000001 C 19.97568000000001 -122.65613 27.57560000000001 -125.05141 35.54909000000001 -125.87631000000002 C 40.765260000000005 -126.41595000000002 61.923820000000006 -126.33305000000001 77.45512000000001 -121.64235000000002 C 95.45062000000001 -116.20742000000003 107.95339000000001 -105.96111000000002 112.18046000000001 -105.21671000000002 C 119.03838000000002 -104.00901000000002 125.34809000000001 -106.75281000000003 125.70917000000001 -104.61850000000003 C 128.52116 -87.99710000000002 136.59864000000002 -44.24311000000002 139.06355000000002 -27.79586000000002 C 140.21745 -20.09644000000002 139.53651000000002 -13.209390000000019 139.26658000000003 -8.85946000000002 C 139.08175000000003 -5.88090000000002 132.84033000000002 -6.94739000000002 124.06349000000003 -8.57467000000002 C 121.83667000000003 -8.98754000000002 119.44664000000003 -9.43650000000002 116.95091000000004 -9.86466000000002 C 114.27689000000004 -10.32340000000002 103.60520000000004 -10.90509000000002 100.28823000000003 -6.26004000000002 C 95.91781000000003 -0.13976000000001942 99.23329000000003 11.89987999999998 99.95430000000003 13.91798999999998 C 100.34800000000003 15.01996999999998 102.32459000000003 16.00487999999998 104.07949000000004 16.96431999999998 C 104.63512000000003 17.26808999999998 87.02413000000004 16.90272999999998 73.03027000000003 18.46349999999998 C 71.10789000000003 18.67790999999998 46.53516000000003 20.381129999999978 31.552000000000028 29.744099999999978 C 22.034130000000026 35.691809999999975 21.172500000000028 48.28467999999998 21.078230000000026 50.121469999999974 C 20.628120000000028 58.890969999999975 28.910740000000025 67.80598999999998 30.574150000000024 78.59657999999997 C 33.221540000000026 95.77029999999998 26.211020000000026 130.32844999999998 30.106300000000026 147.74345999999997 C 37.359770000000026 180.17224 53.51448000000003 191.03490999999997 53.597410000000025 191.18725999999998 C 53.64494000000003 191.27458 36.782960000000024 180.18925 30.069440000000025 145.09974999999997 C 27.093250000000026 129.54412999999997 33.597280000000026 93.80044999999997 31.681950000000025 78.61513999999997 C 31.252540000000025 75.21065999999996 26.150450000000024 64.06505999999997 24.457980000000028 60.63530999999997 C 24.30489000000003 60.32507999999997 31.968450000000026 57.631739999999965 37.881210000000024 59.118129999999965 C 43.63630000000003 60.56487999999997 53.59679000000003 68.29038999999996 63.58739000000003 70.06244999999997 C 65.22871000000002 70.35356999999998 61.44272000000003 78.94617999999997 63.35148000000003 79.01064999999997 C 65.15856000000004 79.07167999999997 62.36585000000003 69.75605999999996 64.34624000000004 70.00797999999998 C 65.64188000000004 70.17279999999998 68.87453000000004 69.19633999999998 72.04937000000004 69.71485999999997 C 74.97173000000004 70.19214999999997 77.84509000000004 72.16680999999997 79.11370000000004 72.31752999999998 C 80.09128000000004 72.43366999999998 77.59438000000004 85.56252999999998 78.58163000000003 85.54720999999998 C 80.38881000000003 85.51914999999998 78.38165000000004 72.82415999999998 80.19062000000004 73.04412999999998 C 81.22608000000004 73.17003999999999 83.36815000000004 72.24832999999998 85.39529000000005 72.42980999999997 C 88.41863000000005 72.70047999999997 93.03144000000005 74.69116999999997 94.51948000000004 74.89158999999998 C 97.18789000000004 75.25098999999997 92.38669000000004 89.38833999999999 95.00854000000004 89.78513999999998 C 96.48702000000004 90.00889999999998 94.61611000000003 74.77991999999999 96.06249000000004 75.01894999999999 C 97.37268000000005 75.23546999999999 100.22763000000003 74.83702 103.16606000000004 75.56057999999999 C 106.50497000000004 76.38275999999999 111.46226000000004 78.63754999999999 112.87294000000004 78.87647999999999 C 113.50340000000004 78.98325999999999 113.24672000000004 89.20808999999998 111.10423000000004 93.42149999999998 C 110.60575000000004 94.40179999999998 90.26989000000005 90.44386999999998 72.13712000000004 83.85565999999999 C 56.06209000000004 78.01508999999999 40.75928000000004 62.67027999999999 40.81577000000004 62.680289999999985 C 40.960140000000045 62.705879999999986 40.98271000000004 86.82436999999999 66.78558000000004 98.43871999999999 C 79.69300000000004 104.24859 96.73299000000004 111.01637999999998 113.32454000000004 114.56020999999998 C 137.21662000000003 119.66337999999999 159.64463000000003 120.21782999999998 162.96308000000005 119.60115999999998 C 166.20064000000005 118.99951999999998 180.38200000000006 104.49211999999997 172.67231000000004 100.41890999999998 C 170.50999000000004 99.27649999999998 161.29681000000005 107.68079999999998 158.16401000000005 106.77034999999998 C 148.25390000000004 103.89028999999998 131.78343000000004 100.10310999999999 121.81423000000004 97.17706999999999 C 114.59788000000003 95.05901999999999 111.97220000000004 93.27376999999998 112.02920000000003 93.17824999999999 C 112.42004000000003 92.52323 112.88128000000003 79.00447999999999 114.38562000000003 79.30082999999999 C 115.07405000000003 79.43645 118.92493000000003 78.76267999999999 122.82308000000003 79.47326 C 126.68441000000003 80.17712999999999 131.80058000000002 82.86923 132.72696000000002 83.0855 C 133.97577 83.37704 130.77523000000002 99.84397999999999 132.08571 100.1565 C 134.29144 100.68251 130.98477 82.82874999999999 133.25939 83.40608 C 135.42522 83.9558 139.37245 83.79257 142.25692 84.49588 C 144.09367 84.94372 148.89507 86.63723 150.73965 87.21332 C 151.77766000000003 87.5375 148.52773000000002 103.3882 149.51362 103.72243999999999 C 150.84831 104.17492999999999 150.20467 86.86699999999999 151.35905 87.29046 C 152.06774 87.55042999999999 154.56367 87.74502 156.77145 89.04193 C 159.0942 90.40638 161.1272 92.87414 161.63639999999998 93.07385 C 162.96708999999998 93.59573999999999 158.12756 105.60979999999999 159.18401999999998 106.14112999999999 C 160.60607 106.85633999999999 162.09306999999998 92.8042 163.20669999999998 93.43421999999998 C 165.13683999999998 94.52617999999998 172.43500999999998 97.37733999999998 174.32639999999998 97.73152999999998 C 179.06234999999998 98.61839999999998 181.08326999999997 94.12769999999998 180.95310999999998 93.87445999999997 C 180.69075999999998 93.36401999999997 170.43892 75.86779999999997 145.97253999999998 66.20928999999997 C 143.42783999999997 65.20472999999997 137.93204999999998 68.21268999999997 135.34529999999998 67.21384999999997 C 130.61629 65.38779999999997 120.75294999999998 60.01392999999997 116.10449999999997 58.47787999999996 C 109.61801999999997 56.334459999999964 88.30305999999997 53.15081999999996 66.63982999999998 53.476119999999966 C 40.837689999999974 53.86356999999997 23.453419999999973 59.101539999999964 23.398599999999973 58.980749999999965 C 21.986249999999973 55.86911999999997 21.027999999999974 52.916839999999965 21.228459999999973 50.239549999999966 C 21.344089999999973 48.695179999999965 23.006589999999974 34.67456999999997 30.849399999999974 30.038299999999964 C 45.11637999999998 21.604369999999964 71.65854999999998 18.170929999999963 73.59990999999997 18.021499999999964 C 90.06091999999997 16.754429999999964 108.97377999999996 19.717329999999965 109.73399999999997 19.808979999999963 C 112.55931999999997 20.14956999999996 116.82285999999996 20.36155999999996 119.73682999999997 21.16138999999996 C 120.82535999999998 21.460169999999962 117.33744999999998 19.955209999999962 116.91624999999996 17.65125999999996 C 116.52665999999996 15.520199999999962 119.06103999999996 12.605479999999961 123.12107999999996 12.184479999999962 C 127.60847999999996 11.719159999999961 141.54941999999997 15.518159999999963 148.89811999999995 19.16979999999996 C 152.64010999999994 21.02922999999996 153.64641999999995 23.36364999999996 152.93575999999996 24.02194999999996 C 152.32666999999995 24.58616999999996 152.16663999999997 25.47166999999996 151.06806999999995 26.112009999999962 C 148.82507999999996 27.419409999999964 145.59676999999994 28.436619999999962 147.14547999999994 28.735699999999962 C 149.17620999999994 29.127869999999962 149.34839999999994 31.121659999999963 150.91028999999995 31.47981999999996 C 156.23709999999994 32.701309999999964 160.13374999999994 31.474069999999962 160.77616999999995 32.09418999999996 C 161.12804999999994 32.43385999999996 167.95238999999995 32.335689999999964 171.92087999999995 29.418649999999964 C 175.80546999999996 26.563289999999963 177.21835999999996 24.507779999999965 179.81094999999996 24.216379999999965 C 181.87731999999997 23.984129999999965 183.97924999999995 25.828119999999966 182.84822999999997 28.727959999999968 C 181.81733999999997 31.371069999999968 177.59251999999998 35.04767999999997 178.25024999999997 35.73850999999997 C 178.71854999999996 36.23038999999997 186.06547999999998 31.386089999999967 187.11973999999998 30.50111999999997 C 191.96935999999997 26.43023999999997 188.43504 9.000669999999968 188.75090999999998 8.909909999999968 C 190.01297999999997 8.547259999999968 170.12087999999997 -46.69829000000003 168.87186999999997 -50.09201000000003 C 168.67934999999997 -50.61511000000003 170.55173999999997 -47.28592000000003 177.02800999999997 -44.943650000000034 C 185.12308999999996 -42.01590000000003 198.80947999999995 -39.56224000000003 206.22508999999997 -35.81963000000003 C 212.42236999999997 -32.691910000000036 213.74679999999998 -28.004120000000032 213.56205999999997 -28.513680000000033 C 213.34523 -29.111760000000032 213.36276999999998 -38.52674000000003 207.33216999999996 -45.860110000000034 C 205.07388999999995 -48.606240000000035 202.29426999999995 -50.813710000000036 198.39691999999997 -52.51433000000004 C 196.78414999999995 -53.21807000000004 193.46210999999997 -53.68323000000004 192.31108999999998 -54.30432000000004 C 192.10906999999997 -54.41333000000004 198.63123 -52.43270000000004 200.28071999999997 -50.38703000000004 C 202.69129999999998 -47.39746000000004 200.51939 -43.85297000000004 199.83759999999998 -43.05349000000004 C 199.11252 -42.20325000000004 197.93292999999997 -40.718170000000036 196.61142999999998 -40.60142000000004 C 193.58611 -40.33416000000004 189.0844 -41.84528000000004 188.32180999999997 -42.06713000000004 C 186.91173999999998 -42.47734000000004 184.65920999999997 -44.48253000000004 184.54223999999996 -47.907710000000044 C 184.50718999999995 -48.93405000000004 184.84161999999998 -51.624180000000045 186.76327999999995 -52.98269000000005 C 188.74830999999995 -54.386000000000045 192.31648999999996 -54.44209000000005 191.87965999999994 -54.46964000000005 C 189.44965999999994 -54.62289000000005 184.85138999999995 -55.42604000000005 182.22264999999993 -55.31649000000005 C 174.70717999999994 -55.00328000000005 167.71807999999993 -52.19044000000005 167.55319999999992 -52.65756000000005 C 164.9287099999999 -60.093050000000055 160.49706999999992 -70.20603000000006 160.8841099999999 -70.62186000000005 C 164.33094999999992 -74.32501000000005 170.3548799999999 -81.01120000000006 173.6226499999999 -80.70837000000006 C 175.4711399999999 -80.53707000000006 185.82655999999992 -77.09862000000005 187.80759999999992 -76.98100000000007 C 194.9982799999999 -76.55409000000006 205.30847999999992 -75.08359000000007 213.10057999999992 -75.16226000000006 C 226.01799999999992 -75.29268000000006 233.0018699999999 -65.72666000000007 233.14973999999992 -64.78034000000007 C 235.78131999999994 -47.93823000000006 220.62808999999993 -31.962220000000066 220.10176999999993 -23.014850000000067 C 219.57544999999993 -14.067480000000067 229.04913999999994 13.440199999999933 229.04913999999994 13.440199999999933 C 229.04913999999994 13.440199999999933 233.25966999999994 15.545459999999933 227.99650999999994 36.59808999999993 C 224.19757999999993 51.79380999999993 219.85023999999996 59.311769999999925 217.72537999999994 65.48543999999993 C 217.26148999999995 66.83323999999993 203.15527999999995 94.00592999999992 196.40993999999995 119.64758999999992 C 191.24640999999994 139.27618999999993 192.97433999999996 158.91754999999992 192.97433999999996 159.93334999999993 C 192.97433999999996 160.46613999999994 191.17058999999995 138.48662999999993 196.72954999999996 118.37731999999994 C 202.81550999999996 96.36160999999994 217.04231999999996 68.73052999999993 216.98497999999995 69.76708999999994 C 216.26686999999995 82.74834999999995 212.49235999999996 119.21707999999994 207.47019999999995 132.91387999999995 C 201.68072999999995 148.70334999999994 198.52282999999994 157.12440999999995 198.52282999999994 166.07176999999996 C 198.52282999999994 175.01913999999996 203.78598999999994 244.62408999999997 178.52282999999994 264.09776999999997 C 159.53867999999994 278.73139 137.05406999999994 282.66569 128.44259999999994 283.94073999999995 C 125.59435999999994 284.36245999999994 131.17096999999995 313.46061999999995 129.28073999999995 313.11533999999995 C 127.66917999999995 312.82096999999993 129.18170999999995 284.77311 127.39469999999996 284.1304999999999 C 118.32118999999996 280.86765999999994 90.65907999999996 279.4922399999999 68.32323999999996 272.8830499999999 C 35.77354999999996 263.25157999999993 9.007139999999957 247.8388199999999 9.007139999999957 247.8388199999999 C 9.007139999999957 247.8388199999999 -18.515350000000044 213.4966499999999 -42.044760000000046 201.73193999999992 C -65.57417000000004 189.96722999999992 -123.09051000000005 163.16984999999994 -130.93365000000006 150.75154999999992 C -138.77679000000006 138.33324999999994 -142.04476000000005 118.72540999999993 -138.77679000000006 102.38553999999992 C -135.50882000000007 86.04566999999992 -126.60046000000006 56.65893999999992 -123.98608000000006 34.43671999999992 C -121.37170000000006 12.214499999999923 -129.11559000000005 48.17676999999992 -129.11559000000005 48.17676999999992 C -129.11559000000005 48.17676999999992 -145.69238000000004 42.36034999999992 -160.71415000000005 35.13570999999992 C -161.74970000000005 34.637669999999915 -167.50374000000005 150.11496999999991 -179.28476000000003 187.33427999999992 C -201.04651000000004 256.0853199999999 -234.75829000000004 267.43524999999994 -236.50447000000003 266.4665099999999 C -237.92359000000002 265.6792099999999 -202.31497000000002 254.9373699999999 -180.35422000000003 186.15400999999991 C -170.04031000000003 153.84975999999992 -163.20069000000004 33.58408999999992 -163.77119000000002 33.211259999999925 C -168.46531000000002 30.143599999999925 -183.21005000000002 21.143949999999926 -184.22670000000002 18.398989999999927 C -188.67114000000004 6.398989999999927 -186.44892000000002 3.732319999999927 -189.56003 -5.156570000000073 C -192.67114 -14.045460000000073 -196.67114 -30.045460000000073 -192.22670000000002 -38.93435000000007 C -187.78226 -47.82324000000007 -186.00448000000003 -68.71213000000007 -186.00448000000003 -68.71213000000007 L -178.51398000000003 -81.39871000000008 C -178.51398000000003 -81.39871000000008 -188.74039000000002 -137.43157000000008 -183.57910000000004 -152.27028000000007 C -178.41781000000003 -167.10899000000006 -176.43424000000005 -181.47084000000007 -176.43424000000005 -181.47084000000007 L -171.32104000000004 -200.13243000000006 C -171.32104000000004 -200.13243000000006 -162.95799000000005 -233.53656000000007 -158.44186000000005 -238.69785000000007 C -153.92573000000004 -243.85914000000008 -143.60315000000006 -254.13363000000007 -139.73218000000006 -261.8755700000001 C -138.01498000000007 -265.3099600000001 -130.84322000000006 -265.0360600000001 -123.39420000000005 -268.5062600000001 C -114.05135000000006 -272.8587200000001 -104.27236000000005 -280.6092900000001 -104.27236000000005 -280.6092900000001 C -104.27236000000005 -280.6092900000001 -100.13513000000005 -283.7533900000001 -94.79024000000005 -288.8051000000001 C -90.14563000000005 -293.1949400000001 -84.74118000000006 -299.4815500000001 -78.44187000000005 -300.6814200000001 C -64.89348000000005 -303.2620700000001 -49.50579000000005 -305.1494600000001 -49.50579000000005 -305.1494600000001 C -49.50579000000005 -305.1494600000001 -30.55568000000005 -314.8268800000001 -2.8137400000000454 -312.2462300000001 C 24.928199999999954 -309.6655800000001 32.26139999999995 -316.1893300000001 51.61622999999995 -310.38288000000006 C 70.97106999999995 -304.5764300000001 96.18044999999995 -303.16589000000005 103.92237999999995 -303.16589000000005 C 108.69887999999995 -303.16589000000005 123.58924999999995 -295.09135000000003 138.90475999999995 -286.52404000000007 C 148.41319999999996 -281.20513000000005 159.23064999999997 -276.45972000000006 164.42015999999995 -271.02310000000006 C 177.96854999999996 -256.82955000000004 176.95219999999995 -240.65633000000005 181.46832999999995 -233.55956000000006 C 185.98445999999996 -226.46279000000007 213.35520999999994 -198.21709000000007 214.00036999999995 -187.89451000000005 C 214.31503999999995 -182.85978000000006 215.82001999999994 -161.33373000000006 216.34516999999994 -146.22811000000004 C 216.89672999999993 -130.36305000000004 214.26039999999995 -115.72522000000004 213.85383999999993 -112.06621000000004 C 213.43185999999994 -108.26842000000003 216.02385999999993 -126.33729000000004 216.58695999999995 -146.21748000000002 C 217.08292999999995 -163.72779000000003 215.63632999999996 -182.76616 214.33546999999996 -187.78376000000003 C 211.55768999999995 -198.49805000000003 182.19260999999995 -233.20720000000003 182.19260999999995 -233.20720000000003 C 182.19260999999995 -233.20720000000003 171.47831999999994 -266.54053000000005 164.73228999999995 -271.30244000000005 C 157.98625999999996 -276.0643400000001 115.12911999999994 -301.85800000000006 104.41482999999995 -303.04847000000007 C 93.70053999999995 -304.23895000000005 76.24022999999995 -303.04847000000007 59.17672999999995 -308.6040300000001 C 42.11323999999995 -314.1595900000001 31.002129999999948 -313.76276000000007 19.097359999999952 -311.7786300000001 C 7.192599999999953 -309.7945000000001 -3.9185100000000475 -312.96911000000006 -3.9185100000000475 -312.96911000000006 C -3.9185100000000475 -312.96911000000006 -41.12245000000005 -309.79451000000006 -49.45578000000005 -307.01673000000005 C -57.78911000000005 -304.23895000000005 -79.21768000000004 -301.46117000000004 -79.21768000000004 -301.46117000000004 C -79.21768000000004 -301.46117000000004 -100.24943000000005 -284.39768000000004 -105.01133000000004 -279.23895000000005 C -109.77323000000004 -274.08022000000005 -133.18593000000004 -267.33419000000004 -139.53514000000004 -261.38181000000003 C -145.88435000000004 -255.42943000000002 -145.88435000000004 -248.28657000000004 -157.78911000000005 -239.15959000000004 C -169.69387000000006 -230.03261000000003 -178.42403000000004 -161.77864000000005 -183.58276000000006 -151.46118000000004 C -188.74149000000006 -141.14372000000003 -177.63038000000006 -77.90009000000005 -174.45578000000006 -80.28104000000005 C -174.26277000000007 -80.42580000000005 -180.63245000000006 -75.43130000000005 -182.19562000000005 -63.95126000000005 C -182.53557000000004 -61.45467000000005 -177.50660000000005 -55.929340000000046 -177.89647000000005 -53.13447000000005 C -178.27565000000004 -50.41622000000005 -176.52048000000005 -45.11512000000005 -177.09327000000005 -42.37848000000005 C -178.51802000000004 -35.57144000000005 -187.45771000000005 -31.936500000000052 -187.52202000000005 -25.186940000000053 C -187.56215000000006 -20.974310000000052 -181.67604000000006 -7.418920000000053 -173.12650000000005 -2.2944100000000525 C -166.69808000000006 1.5587299999999473 -157.24609000000004 -2.9421200000000525 -156.11056000000005 0.17295999999994738 C -151.11176000000006 13.886059999999947 -139.94883000000004 13.775049999999947 -139.47926000000004 13.160569999999947 C -139.18323000000004 12.773189999999946 -138.84940000000003 7.741789999999947 -138.69752000000003 0.21933999999994747 C -138.60086 -4.568100000000053 -150.64140000000003 -4.332750000000052 -150.74878 -10.583140000000052 C -150.82787000000002 -15.18672000000005 -138.91418000000002 -26.06832000000005 -139.15731000000002 -30.942730000000054 C -139.84155 -44.660430000000055 -141.26504000000003 -58.57255000000005 -143.93219000000002 -67.73706000000006 C -145.17434000000003 -72.00517000000005 -159.08832 -81.77598000000006 -160.22194000000002 -84.66646000000006 C -160.90933 -86.41915000000006 -164.60127000000003 -86.95065000000005 -167.20284 -85.84334000000005 C -168.91413 -85.11497000000006 -169.43322 -82.95711000000006 -170.85717 -82.51343000000006 C -172.9232 -81.86969000000006 -173.79638 -84.07153000000005 -173.63683 -84.15912000000006 C -172.54796 -84.75692000000006 -171.42151 -88.42963000000006 -168.36779 -89.71996000000006 C -164.30031000000002 -91.43866000000006 -158.04236 -90.65101000000006 -155.80497000000003 -89.40801000000006 C -145.09068000000002 -83.45563000000006 -128.42402000000004 -75.51912000000006 -124.85259000000002 -63.61436000000006 C -121.28116000000001 -51.709600000000066 -116.91608000000002 -12.42388000000006 -116.91608000000002 -12.42388000000006 L -80.57562000000001 -15.814550000000061 L -68.70739000000002 -4.153310000000062 L -38.81012000000002 12.31201999999994 L -23.03601000000002 24.73200999999994 L -14.45946000000002 39.36473999999994 L -14.99834000000002 106.52382999999995 L -3.6865600000000196 152.92055999999994 C -3.6865600000000196 152.92055999999994 -9.18988000000002 136.43494999999993 -13.44079000000002 104.75178999999994 C -15.06821000000002 92.62215999999994 -11.14091000000002 41.09506999999994 -12.37800000000002 38.27531999999994 C -25.89734000000002 7.460269999999937 -71.49019000000001 -1.7485400000000624 -76.95221000000001 -13.856470000000066 C -78.45251 -17.182250000000067 -79.38783000000001 -19.202170000000066 -79.61477000000001 -19.586520000000064 C -85.53505000000001 -29.613030000000066 -95.8354 -49.97438000000007 -93.29521000000001 -66.66701000000006 C -89.77762000000001 -89.78259000000006 -84.24998000000001 -109.88309000000007 -77.21481000000001 -119.93334000000007 C -70.17963000000002 -129.98359000000008 -45.55652000000001 -151.59163000000007 -31.988680000000016 -158.1242900000001 C -18.420840000000016 -164.65695000000008 -44.551490000000015 -201.3403700000001 -44.048980000000014 -210.3856000000001 C -43.546470000000014 -219.4308300000001 -28.973600000000015 -233.5011800000001 -8.873100000000015 -237.5212800000001 C 11.227399999999985 -241.54138000000012 48.91583999999998 -240.53636000000012 48.91583999999998 -240.53636000000012 C 48.91583999999998 -240.53636000000012 86.60427999999999 -235.00872000000012 92.63442999999998 -234.00370000000012 C 98.66457999999999 -232.99867000000012 99.41834999999998 -233.62682000000012 101.67965999999998 -233.50119000000012" stroke-linecap="round" />
</g>
</svg>