<?xml version="1.0" encoding="UTF-8" standalone="no" ?>
<!DOCTYPE svg PUBLIC "-//W3C//DTD SVG 1.1//EN" "http://www.w3.org/Graphics/SVG/1.1/DTD/svg11.dtd">
<svg xmlns="http://www.w3.org/2000/svg" xmlns:xlink="http://www.w3.org/1999/xlink" version="1.1" width="1000" height="1000" viewBox="0 0 1000 1000" xml:space="preserve">
<desc>Created with Fabric.js 4.6.0</desc>
<defs>
</defs>
<g transform="matrix(1 0 0 1 499.4 479.64)" id="a4dW6-HDFOI76d6cHtxJc"  >
<path style="stroke: rgb(0,0,0); stroke-width: 1; stroke-dasharray: none; stroke-linecap: butt; stroke-dashoffset: 0; stroke-linejoin: miter; stroke-miterlimit: 4; fill: rgb(255,255,255); fill-opacity: 0; fill-rule: nonzero; opacity: 1;" vector-effect="non-scaling-stroke"  transform=" translate(0, 0)" d="M 47.01368 -391.36308 C 47.01368 -391.36308 53.88181 -378.17627000000005 53.88181 -374.33011000000005 C 53.88181 -370.48396 56.07961 -346.85758000000004 56.07961 -344.38506000000007 C 56.07961 -341.91253000000006 53.88181 -340.53891000000004 53.88181 -340.53891000000004 C 53.88181 -340.53891000000004 54.98071 -332.8466 52.50818 -330.64880000000005 C 50.035650000000004 -328.4510000000001 47.2884 -327.35210000000006 45.914770000000004 -327.62682000000007 C 44.541140000000006 -327.90155000000004 42.343340000000005 -330.0993500000001 41.793890000000005 -329.27517000000006 C 41.244440000000004 -328.45099000000005 40.145540000000004 -325.9784700000001 36.299380000000006 -323.23121000000003 C 32.453230000000005 -320.48396 31.629050000000007 -316.91253000000006 31.629050000000007 -316.91253000000006 C 31.629050000000007 -316.91253000000006 29.431250000000006 -316.3630800000001 27.782900000000005 -313.6158300000001 C 26.134550000000004 -310.86858000000007 19.815870000000004 -303.06732000000005 17.343340000000005 -302.2431400000001 C 14.870810000000006 -301.4189600000001 12.398290000000005 -303.0673200000001 11.024660000000004 -302.2431400000001 C 9.651030000000004 -301.4189600000001 7.453230000000005 -300.0453400000001 5.530150000000004 -300.0453400000001 C 3.6070700000000047 -300.0453400000001 1.9587200000000045 -298.67171000000013 1.9587200000000045 -298.67171000000013 C 1.9587200000000045 -298.67171000000013 -2.4368799999999955 -296.47391000000016 -4.6346899999999955 -297.02336000000014 C -6.8324899999999955 -297.5728100000001 -10.129199999999996 -296.74863000000016 -11.502819999999996 -295.64973000000015 C -12.876449999999997 -294.55083000000013 -16.997329999999998 -294.00138000000015 -18.645679999999995 -295.64973000000015 C -20.294029999999996 -297.29808000000014 -21.118209999999994 -298.94643000000013 -22.217109999999995 -298.67171000000013 C -23.316009999999995 -298.39698000000016 -23.590739999999993 -295.64973000000015 -23.590739999999993 -295.64973000000015 C -23.590739999999993 -295.64973000000015 -17.821509999999993 -290.70468000000017 -18.645689999999995 -289.6057700000001 C -19.469869999999993 -288.5068700000001 -20.294039999999995 -286.58379000000014 -18.645689999999995 -284.66072000000014 C -16.997339999999994 -282.7376400000001 -15.623709999999996 -281.63874000000015 -16.722609999999996 -279.16621000000015 C -17.821509999999996 -276.69368000000014 -15.251429999999996 -273.4723500000002 -18.645689999999995 -271.90578000000016 C -22.039949999999994 -270.3392000000002 -25.749239999999993 -271.90578000000016 -27.315819999999995 -269.29481000000015 C -28.882399999999997 -266.68384000000015 -26.793629999999997 -265.63946000000016 -32.015559999999994 -264.07288000000017 C -37.237489999999994 -262.5063000000002 -32.015559999999994 -261.2008200000002 -34.10432999999999 -260.41753000000017 C -36.19309999999999 -259.63424000000015 -40.89283999999999 -260.41753000000017 -40.89283999999999 -260.41753000000017 C -40.89283999999999 -260.41753000000017 -39.84844999999999 -258.8509500000002 -42.198319999999995 -257.80656000000016 C -44.54819 -256.76217000000014 -48.725739999999995 -260.15643000000017 -51.075599999999994 -256.76217000000014 C -53.42547 -253.36791000000014 -52.38108 -251.01804000000013 -52.38108 -251.01804000000013 C -52.38108 -251.01804000000013 -54.99205 -248.14598000000012 -55.51424 -247.36269000000013 C -56.03643 -246.57940000000013 -54.99205 -246.57940000000013 -55.51424 -244.49063000000012 C -56.03643 -242.4018600000001 -55.77534 -240.83528000000013 -55.51424 -237.96321000000012 C -55.25314 -235.0911500000001 -57.864110000000004 -234.8300500000001 -57.864110000000004 -231.6968900000001 C -57.864110000000004 -228.5637300000001 -57.603010000000005 -225.9527600000001 -59.95288 -225.1694700000001 C -62.30275 -224.3861800000001 -63.34714 -221.2530200000001 -63.34714 -221.2530200000001 C -63.34714 -221.2530200000001 -70.13565 -222.8196000000001 -70.13565 -224.1250800000001 C -70.13565 -225.4305600000001 -70.91893999999999 -226.73605000000012 -72.74662 -226.47495000000012 C -74.5743 -226.21385000000012 -75.61868 -224.1250800000001 -77.18526 -224.1250800000001 C -78.75184 -224.1250800000001 -80.39363 -221.7885500000001 -80.39363 -217.7762000000001 C -80.39363 -213.7638500000001 -82.24548 -212.22064000000012 -87.80104 -207.5910100000001 C -93.3566 -202.9613800000001 -85.64055 -201.72681000000009 -85.64055 -201.72681000000009 C -85.64055 -201.72681000000009 -85.33191000000001 -198.94903000000008 -87.80104 -196.7885400000001 C -90.27018 -194.6280500000001 -85.3319 -194.3194000000001 -85.64055 -190.3070600000001 C -85.94919 -186.2947100000001 -88.10969 -185.6774300000001 -87.80104 -182.8996500000001 C -87.4924 -180.1218700000001 -85.3319 -180.43051000000008 -87.80104 -176.72681000000009 C -90.27018 -173.0231100000001 -90.57882000000001 -173.0231100000001 -92.12203 -171.1712500000001 C -93.66524 -169.3194000000001 -97.0603 -168.3934700000001 -97.0603 -164.3811300000001 C -97.0603 -160.3687800000001 -94.59116 -159.13422000000008 -97.0603 -155.43051000000008 C -99.52944 -151.72681000000009 -97.0603 -148.64039000000008 -97.0603 -146.7885300000001 C -97.0603 -144.93668000000008 -97.67757999999999 -142.4675400000001 -98.91215 -139.9984100000001 C -100.14672 -137.52927000000008 -96.13436999999999 -136.2947100000001 -94.59116 -135.3687800000001 C -93.04795 -134.4428500000001 -90.88746 -133.2082900000001 -92.12202 -130.12187000000011 C -93.35659000000001 -127.03545000000011 -92.7393 -123.33175000000011 -90.57881 -122.71446000000012 C -88.41832000000001 -122.09718000000012 -90.57881 -118.08483000000011 -90.57881 -116.23298000000011 C -90.57881 -114.38113000000011 -86.87511 -113.4552000000001 -87.80103 -111.29471000000011 C -88.72695999999999 -109.13422000000011 -90.57881 -109.13422000000011 -90.57881 -106.3564400000001 C -90.57881 -103.5786600000001 -92.78880000000001 -103.4239800000001 -92.94604000000001 -102.2447300000001 C -93.10327000000001 -101.06548000000011 -91.37371000000002 -96.5843500000001 -92.94604000000001 -94.93341000000011 C -94.51837 -93.2824700000001 -95.46176000000001 -93.99001000000011 -96.01208000000001 -91.55291000000011 C -96.56239000000001 -89.1158000000001 -98.37057000000001 -88.72272000000011 -98.37057000000001 -88.09379000000011 C -98.37057000000001 -87.46486000000012 -98.04737000000002 -86.75731000000012 -98.91215000000001 -85.26360000000011 C -99.77693000000001 -83.76989000000012 -99.38385000000001 -82.71381000000011 -98.91215000000001 -80.98425000000012 C -98.44045000000001 -79.25469000000011 -98.52780000000001 -78.38991000000011 -100.02151 -78.07544000000011 C -101.51522 -77.76097000000011 -100.65044 -76.03141000000011 -100.02151 -75.00940000000011 C -99.39258000000001 -73.98739000000012 -100.80767 -73.35846000000011 -100.02151 -72.10059000000011 C -99.23535000000001 -70.84273000000012 -92.67234 -68.72009000000011 -92.12202 -65.49682000000011 C -91.57171000000001 -62.273550000000114 -92.23849000000001 -58.578580000000116 -93.88943 -57.94965000000011 C -95.54037000000001 -57.320720000000115 -95.85484000000001 -55.827010000000115 -98.37056000000001 -56.37732000000011 C -100.88628000000001 -56.927630000000114 -100.33597000000002 -58.735810000000114 -101.75106000000001 -55.748390000000114 C -103.16615000000002 -52.760970000000114 -101.51521000000001 -52.210650000000115 -105.13156000000001 -51.42449000000011 C -108.74791 -50.63833000000011 -108.6693 -48.67292000000011 -108.04037000000001 -46.70751000000011 C -107.41144000000001 -44.742100000000114 -107.75534 -42.470340000000114 -110.48046000000001 -41.52247000000011 C -113.20558000000001 -40.57460000000011 -111.54681000000001 -37.49403000000011 -111.54681000000001 -37.49403000000011 C -111.54681000000001 -37.49403000000011 -114.98283 -37.37555000000011 -114.03496000000001 -32.99166000000011 C -113.08709000000002 -28.60777000000011 -115.57524000000001 -29.55564000000011 -114.98283 -26.00114000000011 C -114.39041 -22.44664000000011 -117.58947 -23.03905000000011 -117.58947 -17.588820000000112 C -117.58947 -12.138580000000111 -119.01127000000001 -18.773650000000114 -122.68426000000001 -14.389770000000112 C -126.35725000000001 -10.005880000000111 -122.80274000000001 -14.626740000000112 -127.77905000000001 -12.967970000000113 C -132.75535000000002 -11.309200000000112 -132.75535000000002 -12.375550000000112 -134.76957000000002 -12.967970000000113 C -136.78379 -13.560390000000114 -139.15346000000002 -15.456120000000112 -140.69374000000002 -14.863700000000113 C -142.23402000000002 -14.271280000000113 -140.21981000000002 -12.612520000000114 -142.58947 -12.967970000000113 C -144.95914000000002 -13.323420000000112 -145.43307000000001 -14.982190000000113 -147.32881 -14.389770000000112 C -149.22454 -13.797350000000112 -151.94966 -16.403990000000114 -155.38568 -14.863700000000112 C -158.82170000000002 -13.323420000000112 -158.22928000000002 -16.522470000000112 -160.36198000000002 -14.389770000000112 C -162.49468000000002 -12.257070000000112 -165.10132000000002 -14.271290000000112 -164.5089 -10.953750000000113 C -163.91648 -7.636210000000113 -161.6653 -9.413470000000114 -162.61317000000003 -6.332900000000113 C -163.56104000000002 -3.2523300000001134 -158.94018000000003 -7.043800000000113 -158.58473000000004 -1.7120500000001133 C -158.22928000000005 3.619699999999887 -158.58473000000004 7.766619999999886 -158.58473000000004 7.766619999999886 C -158.58473000000004 7.766619999999886 -158.22928000000005 17.837709999999888 -157.51838000000004 21.155249999999885 C -156.80748000000003 24.472789999999886 -158.34776000000002 31.538959999999886 -158.58473000000004 35.685879999999884 C -158.82170000000005 39.832799999999885 -161.78378000000004 41.61004999999989 -162.61317000000003 44.45364999999988 C -163.44255 47.297249999999885 -162.85014000000004 49.666919999999884 -166.28616000000002 52.15506999999988 C -169.72218000000004 54.64321999999988 -173.27668000000003 64.59582999999988 -173.39516000000003 65.42520999999988 C -173.51364000000004 66.25458999999988 -177.42360000000002 68.38729999999988 -177.42360000000002 71.70482999999987 C -177.42360000000002 75.02236999999987 -173.58928000000003 79.38610999999987 -175.24805000000003 83.53302999999987 C -176.90682000000004 87.67994999999986 -179.51345000000003 91.23444999999987 -181.64615000000003 91.23444999999987 C -183.77885000000003 91.23444999999987 -188.04425000000003 91.23444999999987 -186.14852000000005 96.44771999999986 C -184.25279000000006 101.66098999999986 -186.85942000000006 98.93586999999987 -187.33335000000005 104.38610999999986 C -187.80728000000005 109.83634999999985 -186.74093000000005 108.88847999999986 -187.33335000000005 110.78420999999986 C -187.92577000000006 112.67993999999986 -190.05847000000006 115.16809999999985 -192.30965000000006 114.81264999999986 C -194.56083000000007 114.45719999999986 -195.39022000000006 119.90743999999987 -195.15325000000007 123.58041999999986 C -194.91628000000006 127.25340999999986 -196.10112000000007 133.49775999999986 -198.35230000000007 135.51197999999985 C -200.60348000000008 137.52619999999985 -200.01107000000007 140.25131999999985 -199.65562000000008 141.08069999999987 C -199.3001700000001 141.91007999999985 -201.4328700000001 147.47879999999986 -200.3665200000001 150.79633999999987 C -199.3001700000001 154.11387999999988 -203.32861000000008 155.53567999999987 -205.5797900000001 155.06173999999987 C -207.8309700000001 154.58780999999988 -208.7788400000001 160.15652999999986 -207.8309700000001 162.52618999999987 C -206.8831000000001 164.89585999999989 -210.0821500000001 166.31765999999988 -209.8451900000001 168.21338999999986 C -209.60822000000007 170.10911999999985 -210.0821600000001 173.54513999999986 -211.38547000000008 174.72997999999987 C -212.6887900000001 175.91480999999987 -211.38547000000008 178.28447999999986 -211.38547000000008 178.28447999999986 C -211.38547000000008 178.28447999999986 -211.92028000000008 180.31770999999986 -213.9551600000001 180.89910999999987 C -215.99004000000008 181.48050999999987 -216.7167900000001 185.11422999999988 -217.4435300000001 187.00375999999986 C -218.1702700000001 188.89328999999987 -221.0772500000001 190.78282999999985 -222.9667900000001 193.68980999999985 C -224.8563200000001 196.59678999999986 -228.6353900000001 198.19561999999985 -230.23423000000008 201.24794999999986 C -231.83307000000008 204.30027999999987 -232.1237600000001 201.82934999999986 -234.59470000000007 206.48050999999987 C -237.06563000000008 211.13166999999987 -238.66447000000008 205.02701999999988 -241.13540000000006 208.37003999999988 C -243.60633000000007 211.71305999999987 -240.99005000000005 210.69561999999988 -243.60633000000007 213.02119999999988 C -246.22261000000006 215.34677999999988 -248.54819000000006 214.62003999999988 -247.82145000000008 216.36421999999988 C -247.09471000000008 218.10840999999988 -245.0598200000001 218.98049999999986 -246.65866000000008 220.87002999999987 C -248.25750000000008 222.75955999999988 -249.5656400000001 222.32351999999986 -250.00168000000008 227.41072999999986 C -250.43773000000007 232.49793999999986 -253.19935000000007 227.12002999999987 -252.18191000000007 232.93398999999985 C -251.16447000000008 238.74793999999986 -254.65284000000008 239.62003999999985 -255.81563000000008 239.62003999999985 C -256.9784200000001 239.62003999999985 -256.3970300000001 242.23631999999984 -255.81563000000008 243.83515999999986 C -255.23423000000008 245.43399999999986 -255.9609800000001 248.34096999999986 -257.55982000000006 250.08515999999986 C -259.15866000000005 251.82934999999986 -259.59470000000005 252.99213999999986 -259.01331000000005 254.15492999999987 C -258.4319100000001 255.31771999999987 -258.4319100000001 257.83826999999985 -259.01331000000005 259.1464099999999 C -259.59471 260.45454999999987 -262.06564000000003 262.3440799999999 -261.04819000000003 265.6871099999999 C -260.03075 269.03012999999993 -262.06563000000006 268.44873999999993 -261.04819000000003 270.4836199999999 C -260.03075 272.5184999999999 -261.19354000000004 274.5533899999999 -262.50168 274.84408999999994 C -263.80982 275.13478999999995 -263.95517 276.44292999999993 -264.53656 277.8964199999999 C -265.11796 279.3499099999999 -266.42609 279.6406099999999 -266.28075 283.56501999999995 C -266.1354 287.48943999999995 -268.31563 281.67548999999997 -269.76912 289.96036999999995 C -271.22261 298.24524999999994 -271.36796 289.23362999999995 -273.69354 299.55339 C -276.01912 309.87316 -279.50748999999996 301.15223 -280.81563 302.16967 C -282.12377 303.18711 -281.10633 304.0592 -282.99586 304.49525 C -284.88539 304.9313 -286.04819 306.67548 -284.44935 307.25688 C -282.85051 307.83828 -281.10632999999996 306.38479 -279.07144 308.56502 C -277.03656 310.74525 -278.19935 311.61735 -276.60051 314.37897 C -275.00167 317.1406 -274.12958 324.26268999999996 -275.43772 326.73362 C -276.74586 329.20455 -276.60051 335.16384999999997 -276.60051 337.63478 C -276.60051 340.10571 -281.71916 341.94523 -282.30055999999996 344.99755 C -282.88195999999994 348.04988 -281.13777 349.64871 -283.75404999999995 352.84639 C -286.37032999999997 356.04406 -286.37032999999997 356.48010999999997 -287.82381999999996 357.06151 C -289.27730999999994 357.64291 -288.84126 358.515 -289.27730999999994 359.53244 C -289.71335999999997 360.54988000000003 -292.7656799999999 359.82314 -292.7656799999999 358.515 C -292.7656799999999 357.20686 -294.8005599999999 356.62547 -295.2366099999999 357.78826 C -295.67265999999995 358.95104999999995 -294.07381999999996 360.25919 -294.07381999999996 360.25919 C -294.07381999999996 360.25919 -292.47497999999996 362.00338 -296.39939999999996 364.32896 C -300.32381999999996 366.65454 -294.07381999999996 367.67198 -296.39939999999996 368.83477 C -298.72497999999996 369.99755999999996 -299.59707 372.90454 -299.30637999999993 373.92198 C -299.0156799999999 374.93942000000004 -302.64939999999996 377.41035 -303.37614999999994 376.68361000000004 C -304.10288999999995 375.95687000000004 -302.3587099999999 378.71849000000003 -304.39358999999996 379.88128000000006 C -306.42846999999995 381.04407000000003 -307.44591999999994 379.88128000000006 -307.73661 382.78826000000004 C -308.02731 385.69524 -309.04474999999996 382.49756 -311.95173 383.95105 C -314.85871 385.40454 -314.56801 382.20686 -317.18429 387.14872 C -319.80057 392.09058000000005 -319.36451999999997 388.31151 -319.36451999999997 391.07314 C -319.36451999999997 393.83477000000005 -322.6278 395.57895 -322.6278 396.16035000000005 C -322.6278 396.74175 -292.18428 397.90454000000005 -286.66103 397.90454000000005 C -281.13777 397.90454000000005 -282.41447 401.97431000000006 -279.07144 401.39291000000003 C -275.72841999999997 400.81151000000006 -273.69353 394.85221 -273.69353 394.85221 C -273.69353 394.85221 -268.31562 391.65454 -264.53655000000003 396.16035 C -260.75748000000004 400.66616 -244.65520000000004 393.68942 -242.76567000000003 392.67198 C -240.87614000000002 391.65454 -239.27730000000003 389.76500000000004 -237.09707000000003 391.07314 C -234.91684000000004 392.38128 -235.20754000000002 393.25337 -233.46335000000002 393.25337 C -231.71916000000002 393.25337 -229.68428000000003 391.79988000000003 -228.66684 392.67197000000004 C -227.6494 393.54406000000006 -225.03312 395.86964000000006 -227.79475000000002 401.39290000000005 C -230.55638000000002 406.91616000000005 -219.94591000000003 401.9743 -218.78312000000003 411.27662000000004 C -217.62033000000002 420.57895 -199.80441000000002 412.14871000000005 -195.15324000000004 412.58476 C -190.50208000000003 413.02081000000004 -181.17620000000005 413.3115 -180.15876000000003 411.27662000000004 C -179.14132000000004 409.24174000000005 -177.54248000000004 401.10220000000004 -172.45527000000004 399.21267000000006 C -167.36806000000004 397.3231400000001 -151.96108000000004 401.53825000000006 -150.21690000000004 399.21267000000006 C -148.47271000000003 396.88709000000006 -150.21690000000004 389.76500000000004 -150.21690000000004 389.76500000000004 C -150.21690000000004 389.76500000000004 -149.78085000000004 385.11384000000004 -145.56574000000003 385.11384000000004 C -141.35062000000002 385.11384000000004 -138.77278000000004 379.88128000000006 -139.64487000000003 372.17779 C -140.51696000000004 364.4743 -134.12161000000003 359.82314 -133.68557 350.66616 C -133.24952000000002 341.50918 -136.01115000000001 337.63478 -136.01115000000001 337.63478 C -136.01115000000001 337.63478 -136.90226 327.91845 -134.76955 326.73362 C -132.63685 325.54879 -131.21363000000002 324.977 -131.21363000000002 321.89642999999995 C -131.21363000000002 318.81585999999993 -131.33354000000003 314.78743 -127.77903000000002 311.94381999999996 C -124.22453000000002 309.10022 -125.28946000000002 310.33743999999996 -124.57856000000002 307.25686999999994 C -123.86766000000003 304.1762999999999 -124.81553000000002 297.01490999999993 -120.07619000000003 298.1997399999999 C -115.33685000000003 299.3845699999999 -117.58946000000003 303.0763899999999 -117.58946000000003 303.0763899999999 C -117.58946000000003 303.0763899999999 -114.82231000000003 302.7295899999999 -114.98282000000003 304.4952399999999 C -115.14333000000003 306.2608899999999 -116.25894000000004 312.8677199999999 -110.48045000000003 315.9174799999999 C -104.70196000000003 318.9672399999999 -101.30560000000003 319.4887199999999 -100.02149000000003 321.8964199999999 C -98.73738000000003 324.3041199999999 -98.91213000000003 318.32517999999993 -98.91213000000003 318.32517999999993 C -98.91213000000003 318.32517999999993 -99.21893000000003 314.63336999999996 -100.02149000000003 313.18873999999994 C -100.82406000000003 311.74411999999995 -100.35675000000003 308.86198999999993 -98.91213000000003 307.25685999999996 C -97.46751000000003 305.65171999999995 -92.38340000000004 302.75534999999996 -89.17312000000004 303.07638 C -85.96285000000005 303.39741 -84.83925000000004 305.13728 -83.55514000000004 304.49523 C -82.27103000000004 303.85318 -76.97408000000004 294.56916 -74.08484000000004 294.08762 C -71.19559000000004 293.60608 -65.41710000000005 292.96402 -64.29351000000004 291.67992000000004 C -63.16991000000004 290.39581000000004 -62.20683000000004 284.61732000000006 -62.36735000000004 282.04910000000007 C -62.52786000000004 279.48088000000007 -58.836050000000036 277.5753700000001 -56.26783000000004 277.8964000000001 C -53.699610000000035 278.2174300000001 -44.87136000000004 279.5015400000001 -43.42674000000004 277.8964000000001 C -41.98212000000004 276.2912600000001 -32.35130000000004 271.28618000000006 -28.659480000000038 270.4836100000001 C -24.967670000000037 269.6810400000001 -25.37643000000004 266.7075100000001 -23.590710000000037 265.6871000000001 C -21.805000000000035 264.6666900000001 -19.155860000000036 264.2689100000001 -18.645660000000035 262.2280900000001 C -18.135460000000034 260.1872700000001 -18.555620000000037 243.86074000000013 -13.453580000000034 241.3097200000001 C -8.351540000000035 238.75870000000012 -10.902560000000035 237.99339000000012 -7.331130000000035 236.71788000000012 C -3.7597000000000347 235.44237000000012 -2.654180000000035 236.20768000000012 -0.10316000000003456 234.42196000000013 C 2.4478599999999653 232.63625000000013 7.708349999999966 229.83012000000014 11.024669999999965 228.55461000000014 C 14.340999999999966 227.27910000000014 14.097439999999965 227.53420000000014 15.117849999999965 226.00359000000014 C 16.138259999999967 224.47298000000015 25.506619999999963 213.75869000000014 31.629069999999967 210.69747000000015 C 37.751519999999964 207.63625000000016 43.94437999999997 199.21788000000015 42.92396999999997 195.13625000000016 C 41.90355999999997 191.05462000000017 39.10551999999997 188.78947000000016 36.29939999999997 187.00376000000017 C 33.49327999999997 185.21805000000018 32.46478999999997 183.19503000000017 33.99539999999997 180.89911000000018 C 35.52600999999997 178.60319000000018 37.56682999999997 174.72998000000018 39.86274999999997 174.72998000000018 C 42.15866999999997 174.72998000000018 44.38416999999997 174.98319000000018 45.91477999999997 173.19748000000018 C 47.445389999999975 171.4117700000002 48.79131999999997 168.8607500000002 51.34233999999997 170.1362600000002 C 53.89335999999997 171.4117700000002 54.29389999999997 173.45259000000019 56.07961999999997 173.19748000000018 C 57.86532999999997 172.94238000000018 60.78111999999997 172.94238000000018 64.09743999999998 170.1362600000002 C 67.41376999999997 167.3301400000002 69.45457999999998 169.9991100000002 71.75049999999997 168.2134000000002 C 74.04641999999997 166.4276900000002 78.12804999999997 163.7587100000002 79.91376999999997 159.16688000000022 C 81.69947999999997 154.57504000000023 84.50560999999998 155.06175000000022 84.50560999999998 155.06175000000022 C 84.50560999999998 155.06175000000022 91.64846999999997 146.9818700000002 79.91376999999997 142.39003000000022 C 68.17907999999997 137.79819000000023 75.32192999999997 130.65534000000022 66.13825999999997 130.91044000000022 C 56.954589999999975 131.16554000000022 50.32192999999997 120.70636000000022 48.53621999999997 120.96146000000022 C 46.75050999999997 121.21656000000021 44.855129999999974 122.56002000000022 41.79390999999997 123.58043000000022 C 38.73268999999997 124.60084000000022 31.11886999999997 120.70636000000022 31.62906999999997 116.62472000000022 C 32.13926999999997 112.54309000000022 34.25050999999997 106.42693000000023 39.86274999999997 104.38611000000023 C 45.47498999999997 102.34529000000023 49.04641999999997 102.08390000000023 48.53621999999997 98.00227000000022 C 48.026019999999974 93.92064000000022 45.99327999999997 84.99207000000023 47.01368999999997 82.44105000000022 C 48.03409999999997 79.89003000000022 56.44438999999997 78.10432000000021 57.209689999999966 75.04309000000022 C 57.974999999999966 71.98187000000021 63.33213999999997 57.18595000000022 67.41376999999997 55.14513000000022 C 71.49539999999998 53.104310000000226 74.30152999999997 56.675740000000225 75.06682999999997 55.14513000000022 C 75.83213999999997 53.61452000000022 79.02301999999997 44.53322000000022 81.39268999999997 42.16355000000022 C 83.76235999999997 39.79388000000022 86.36898999999997 31.263080000000222 87.55382999999998 28.18251000000022 C 88.73865999999998 25.10194000000022 90.87136999999997 24.62801000000022 92.53012999999997 24.86497000000022 C 94.18889999999998 25.10194000000022 95.37372999999997 29.60431000000022 96.32159999999998 29.60431000000022 C 97.26946999999997 29.60431000000022 102.48273999999998 29.841280000000218 103.66756999999997 28.182510000000217 C 104.85239999999997 26.523740000000217 105.08936999999997 20.836540000000216 107.93296999999997 20.125640000000217 C 110.77656999999996 19.41474000000022 118.12253999999997 19.888670000000218 119.78130999999996 18.466870000000217 C 121.44007999999997 17.045070000000216 121.20310999999997 12.542700000000217 124.28367999999996 11.357870000000217 C 127.36424999999996 10.173040000000217 129.25997999999996 11.357870000000217 129.25997999999996 11.357870000000217 C 129.25997999999996 11.357870000000217 132.10357999999997 14.675410000000216 132.34054999999995 17.519010000000215 C 132.57751999999996 20.362610000000213 141.81921999999994 22.969250000000216 141.81921999999994 22.969250000000216 C 141.81921999999994 22.969250000000216 145.84765999999993 21.866170000000217 147.03248999999994 21.155260000000215 C 148.21731999999994 20.444360000000216 149.40215999999995 22.103130000000213 150.35002999999995 21.155260000000215 C 151.29789999999994 20.207390000000217 153.19362999999996 17.519010000000215 153.19362999999996 17.519010000000215 C 153.19362999999996 17.519010000000215 156.98509999999996 18.703840000000216 157.69599999999997 17.519010000000215 C 158.40689999999998 16.334180000000213 160.30263999999997 16.571140000000213 160.53959999999998 13.727540000000214 C 160.77657 10.883940000000214 162.67229999999998 7.292700000000214 164.56803999999997 7.766640000000215 C 166.46376999999995 8.240570000000215 165.51590999999996 11.357880000000215 168.12253999999996 11.357880000000215 C 170.72917999999996 11.357880000000215 172.86187999999996 8.751240000000214 174.52063999999996 10.173050000000215 C 176.17940999999996 11.594850000000214 179.97087999999997 14.912390000000215 180.20783999999995 17.519020000000214 C 180.44480999999996 20.125660000000213 184.24519999999995 16.845800000000214 184.24519999999995 16.845800000000214 C 184.24519999999995 16.845800000000214 188.83235999999997 14.491350000000214 191.73754999999994 18.466880000000213 C 194.64274999999995 22.44242000000021 196.78341999999995 23.88668000000021 198.61827999999994 22.969250000000212 C 200.45313999999993 22.051820000000212 203.96995999999993 22.87722000000021 207.02806999999993 24.864980000000212 C 210.08616999999992 26.852750000000214 218.64886999999993 26.180250000000214 221.09534999999994 22.969250000000212 C 223.54182999999995 19.758240000000214 226.29412999999994 17.09146000000021 225.83540999999994 13.727540000000213 C 225.37668999999994 10.363630000000212 221.70696999999993 7.365670000000213 218.03723999999994 5.683710000000213 C 214.36751999999993 4.001750000000213 217.73142999999993 1.0965500000002129 214.82622999999995 -0.43249999999978694 C 211.92102999999994 -1.961549999999787 206.11062999999996 -2.726079999999787 203.35833999999994 0.1791200000002131 C 200.60604999999995 3.084320000000213 195.40726999999995 -0.43249999999978694 195.40726999999995 -0.43249999999978694 C 195.40726999999995 -0.43249999999978694 190.82010999999994 -10.953749999999786 187.15038999999996 -10.953749999999786 C 183.48066999999995 -10.953749999999786 177.36445999999995 -14.606189999999787 177.51735999999997 -15.982329999999786 C 177.67026999999996 -17.358479999999787 177.67026999999996 -20.722389999999784 178.89350999999996 -21.639819999999787 C 180.11674999999997 -22.557249999999787 186.99748999999997 -31.377819999999787 189.29105999999996 -37.49402999999979 C 191.58463999999995 -43.61023999999979 194.03111999999996 -42.76075999999979 195.40726999999995 -44.59562999999979 C 196.78341999999995 -46.430489999999786 201.21766999999994 -56.675139999999786 202.59380999999996 -57.28675999999979 C 203.96995999999996 -57.89837999999979 221.85986999999997 -69.95991999999978 222.47148999999996 -72.10058999999978 C 223.08310999999995 -74.24125999999978 221.55405999999996 -76.24056999999978 223.69472999999996 -78.07542999999978 C 225.83539999999996 -79.91028999999979 224.61215999999996 -78.54057999999978 227.36444999999998 -79.91672999999979 C 230.11673999999996 -81.29287999999978 230.88126999999997 -82.20547999999978 229.65802999999997 -85.2635899999998 C 228.43478999999996 -88.32168999999979 230.88126999999997 -90.6799999999998 232.71612999999996 -89.91547999999979 C 234.55098999999996 -89.1509499999998 233.63355999999996 -87.31608999999979 235.00970999999996 -87.4689999999998 C 236.38585999999995 -87.6219099999998 238.83233999999996 -92.2090599999998 240.36138999999994 -92.6677799999998 C 241.89043999999996 -93.1264999999998 246.32468999999995 -94.7639199999998 248.00664999999995 -91.5529099999998 C 249.68860999999995 -88.3418999999998 251.10409999999996 -87.4690099999998 253.39767999999995 -87.4690099999998 C 255.69125999999994 -87.4690099999998 260.73713 -87.4821699999998 261.65455999999995 -88.0937899999998 C 262.57198999999997 -88.7054099999998 262.57198999999997 -92.6677799999998 264.10103999999995 -92.6677799999998 C 265.63008999999994 -92.6677799999998 266.08880999999997 -91.2916299999998 267.00623999999993 -92.6677799999998 C 267.92366999999996 -94.04392999999979 267.61785999999995 -95.72587999999979 269.60562999999996 -95.72587999999979 C 271.5934 -95.72587999999979 272.35792 -94.65553999999979 273.42825999999997 -95.72587999999979 C 274.49859999999995 -96.79621999999979 276.18055 -103.2983299999998 274.65149999999994 -106.3564399999998 C 273.12244999999996 -109.41453999999979 273.88696999999996 -115.0097399999998 275.56892999999997 -116.2329799999998 C 277.25088999999997 -117.4562199999998 284.43742999999995 -119.7319999999998 285.20196 -121.7197599999998 C 285.96648999999996 -123.70752999999979 284.59033999999997 -129.69746999999978 290.70655 -131.0736199999998 C 296.82276 -132.4497699999998 297.74019 -131.6852399999998 298.65762 -133.2142899999998 C 299.57505000000003 -134.74333999999982 300.33958 -138.8717799999998 299.88086 -141.0124599999998 C 299.42213999999996 -143.1531299999998 304.0093 -145.2938099999998 304.77383 -146.0583299999998 C 305.53835999999995 -146.82285999999982 308.74937 -150.9962599999998 308.90227 -155.4305099999998 C 309.05518 -159.8647599999998 310.27842 -161.2093499999998 311.34875 -161.2093499999998 C 312.41909 -161.2093499999998 313.18361 -160.4448199999998 313.18361 -161.2093499999998 C 313.18361 -161.9738799999998 313.33652 -163.8087399999998 315.63009 -162.5854999999998 C 317.92367 -161.3622599999998 323.79759 -165.0319799999998 322.42144 -167.0197499999998 C 321.04529 -169.0075199999998 314.86556 -172.2185299999998 314.86556 -174.05338999999978 C 314.86556 -175.88824999999977 312.57198 -179.25216999999978 310.43131 -178.79344999999978 C 308.29064 -178.33472999999978 307.2203 -180.7812199999998 307.2203 -180.7812199999998 C 307.2203 -180.7812199999998 307.52611 -188.73228999999978 305.99706000000003 -192.4020199999998 C 304.46801000000005 -196.0717399999998 301.40990000000005 -201.57632999999979 303.55058 -206.1634899999998 C 305.69125 -210.7506499999998 309.66679000000005 -207.9983499999998 311.34875000000005 -212.5855099999998 C 313.03071000000006 -217.1726699999998 312.87780000000004 -222.4431199999998 308.90227000000004 -224.1250799999998 C 304.92673 -225.8070399999998 305.53836000000007 -220.7611699999998 300.95120000000003 -224.1250799999998 C 296.36404000000005 -227.4889899999998 298.65762 -221.9844099999998 296.36404000000005 -224.1250799999998 C 294.07046 -226.2657499999998 293.61175000000003 -230.60184999999979 293.76465 -232.7425199999998 C 293.91756000000004 -234.8831899999998 291.62398 -236.8709599999998 290.09493000000003 -236.71805999999978 C 288.56588000000005 -236.5651499999998 285.96649 -246.13943999999978 285.96649 -247.36267999999978 C 285.96649 -248.5859199999998 284.28453 -250.5593199999998 283.52001 -251.01802999999978 C 282.75548000000003 -251.47674999999978 280.92062 -256.1370199999998 282.90839 -258.4305999999998 C 284.89616 -260.7241799999998 291.62399 -265.7700499999998 292.23561 -267.6049099999998 C 292.84723 -269.4397699999998 292.38852 -273.1094999999998 292.23561 -275.2501699999998 C 292.0827 -277.3908399999998 291.31818 -279.5315199999998 289.0246 -281.0605699999998 C 286.73102 -282.5896199999998 283.67292000000003 -280.4489499999998 283.52001 -281.0605699999998 C 283.3671 -281.67218999999983 283.52001 -285.9535399999998 282.90839 -285.9535399999998 C 282.29677 -285.9535399999998 281.68515 -284.1186799999998 281.53224 -282.8954399999998 C 281.37933 -281.6721999999998 278.32123 -283.5903699999998 278.32123 -284.66070999999977 C 278.32123 -285.73104999999975 278.16832 -286.4122599999998 276.94508 -285.95353999999975 C 275.72184000000004 -285.4948199999997 274.03988000000004 -285.8006299999997 273.42826 -286.7180699999997 C 272.81664 -287.63549999999975 271.87173 -288.8438899999997 272.72039 -290.9655299999997 C 273.56905 -293.08716999999973 272.15462 -294.7844799999997 267.62845 -294.6430399999997 C 263.10228 -294.5015999999997 262.11217999999997 -298.6716999999997 259.56622 -298.6716999999997 C 257.02025 -298.6716999999997 255.1815 -300.5836299999997 254.89861 -301.5737299999997 C 254.61571999999998 -302.5638299999997 254.33284 -309.6359599999997 252.35263999999998 -310.20173999999975 C 250.37243999999998 -310.76750999999973 247.86521 -315.29367999999977 248.00665999999998 -317.55675999999977 C 248.14809999999997 -319.8198399999998 250.37243999999998 -322.8068699999998 245.98772 -323.2311999999998 C 241.603 -323.65552999999977 244.14896 -316.5666599999998 237.07683 -318.4054099999998 C 230.00469 -320.24416999999977 232.12633 -317.5567499999998 228.59027 -317.5567499999998 C 225.0542 -317.5567499999998 222.93256 -318.26395999999977 221.80102 -320.2441599999998 C 220.66948 -322.2243599999998 216.99196999999998 -321.8000299999998 216.99196999999998 -321.8000299999998 C 216.99196999999998 -321.8000299999998 213.45589999999999 -314.4450099999998 207.65675 -317.5567499999998 C 201.8576 -320.6684899999998 199.1992 -329.7208199999998 202.59382 -332.4082399999998 C 205.98845 -335.0956499999998 228.0245 -345.3655799999998 228.59027 -348.6187599999998 C 229.15604 -351.87193999999977 227.60017 -356.1152199999998 226.61007 -357.5296499999998 C 225.61997 -358.94407999999976 225.38426 -360.78282999999976 227.36446 -361.9143699999998 C 229.34466 -363.04590999999976 230.08237 -362.0558099999998 229.65804 -363.8945699999998 C 229.23371 -365.7333299999998 228.24361 -366.1576499999998 229.65804 -368.4207399999998 C 231.07247 -370.6838199999998 228.66794 -372.6640199999998 229.65804 -373.6541199999998 C 230.64814 -374.6442199999998 236.22818 -375.7757599999998 238.77415 -373.0883499999998 C 241.32012 -370.4009399999998 241.17867999999999 -365.7333299999998 244.14897 -364.8846699999998 C 247.11927 -364.0360099999998 249.09947 -365.4504399999998 249.09947 -367.1477499999998 C 249.09947 -368.8450599999998 249.09947 -374.7856599999998 250.79677999999998 -378.0388399999998 C 252.49408999999997 -381.2920199999998 252.49408999999997 -387.5929499999998 249.94812 -387.0271799999998 C 247.40214999999998 -386.46140999999983 243.01743 -378.9649499999998 235.94529 -382.07667999999984 C 228.87315 -385.18841999999984 226.71478 -386.31995999999987 222.47149 -385.3298599999998 C 218.22821 -384.33975999999984 210.06126999999998 -390.13890999999984 209.4955 -394.52363999999983 C 208.92973 -398.90835999999985 206.52519999999998 -401.45432999999986 205.95943 -402.72731999999985 C 205.39366 -404.00029999999987 206.17941 -406.26338999999984 207.02806 -408.80935999999986 C 207.87672 -411.35532999999987 200.16027 -417.15447999999986 193.79535 -415.3157199999998 C 187.43043 -413.47695999999985 193.65391000000002 -413.0526399999998 190.11784 -412.20397999999983 C 186.58177 -411.35531999999984 187.15038 -407.67780999999985 187.15038 -406.40482999999983 C 187.15038 -405.1318499999998 187.29182 -402.86875999999984 187.15038 -400.60567999999984 C 187.00894000000002 -398.34259999999983 186.29888000000003 -398.76691999999986 185.45023 -392.6848899999998 C 184.60157 -386.6028499999998 182.04657 -385.61274999999983 180.20782 -385.3298699999998 C 178.36906 -385.0469799999998 178.08691 -386.3199699999998 176.67248 -385.3298699999998 C 175.25805 -384.3397699999998 175.25805 -383.9154399999998 173.41930000000002 -384.0568899999998 C 171.58054 -384.19832999999977 172.00487 -384.76409999999976 170.59045000000003 -384.0568899999998 C 169.17602000000002 -383.3496799999998 169.17602000000002 -382.9253499999998 167.47871000000004 -384.0568899999998 C 165.78140000000005 -385.18842999999976 164.08408000000003 -389.2902699999998 161.67956000000004 -388.3001699999998 C 159.27503000000004 -387.3100699999998 158.70926000000003 -386.8857399999998 158.70926000000003 -385.3298699999998 C 158.70926000000003 -383.7739999999998 159.11040000000003 -382.5010199999998 157.69597000000002 -383.3496699999998 C 156.28154 -384.19832999999977 155.45608000000001 -386.7442999999998 154.74886 -386.0370799999998 C 154.04165 -385.3298699999998 155.31524000000002 -384.6226499999998 153.1936 -384.05687999999975 C 151.07196 -383.49110999999976 149.65692 -383.06677999999977 149.51548 -384.05687999999975 C 149.37404 -385.04697999999973 147.95961 -385.32985999999977 145.97941 -385.32985999999977 C 143.99921 -385.32985999999977 142.3019 -389.7145799999998 140.74603 -389.43169999999975 C 139.19016 -389.14880999999974 135.79552999999999 -388.44159999999977 133.81534 -385.32985999999977 C 131.83514 -382.2181199999998 126.60175999999998 -386.46139999999974 126.46032 -387.0271699999998 C 126.31888 -387.59293999999977 123.91435 -388.01726999999977 121.36838 -387.0271699999998 C 118.82241 -386.0370699999998 114.72057000000001 -389.0073699999998 114.1548 -389.4316999999998 C 113.58903 -389.8560299999998 112.31604 -389.4316999999998 112.31604 -389.4316999999998 C 112.31604 -389.4316999999998 107.36554 -390.5632399999998 105.95112 -388.30015999999983 C 104.53669000000001 -386.03707999999983 102.69794 -385.8956299999998 101.5664 -387.0271799999998 C 100.43486 -388.1587199999998 97.46456 -389.2902599999998 97.46456 -388.30015999999983 C 97.46456 -387.31005999999985 98.73754000000001 -385.3298599999998 95.62580000000001 -385.3298599999998 C 92.51406000000001 -385.3298599999998 90.73122000000001 -387.02716999999984 89.03391 -385.3298599999998 C 87.3366 -383.6325499999998 86.48458000000001 -389.99746999999985 81.39265 -386.0370699999998 C 76.30071000000001 -382.0766699999998 65.99678 -385.3298599999998 66.13822 -387.5929399999998 C 66.27966 -389.85601999999983 61.87691 -389.4316999999998 61.87691 -389.4316999999998 C 61.87691 -389.4316999999998 61.31114 -394.2407499999998 58.90661 -394.52363999999983 C 56.50208 -394.80652999999984 55.51198 -391.36305999999985 55.51198 -391.36305999999985 C 55.51198 -391.36305999999985 52.22526 -391.12901999999985 52.508140000000004 -392.6848899999998 C 52.791030000000006 -394.24075999999985 55.29619 -393.8164299999998 53.88177 -395.23085999999984 C 52.46734 -396.6452899999998 51.127250000000004 -396.92816999999985 50.56148 -395.9380699999998 C 49.99571 -394.9479699999998 51.127250000000004 -393.1092199999998 49.288500000000006 -392.6848899999998 C 47.449740000000006 -392.2605599999998 47.01364000000001 -391.36305999999985 47.01364000000001 -391.36305999999985 z" stroke-linecap="round" />
</g>
</svg>